%TF.GenerationSoftware,KiCad,Pcbnew,9.0.0*%
%TF.CreationDate,2025-03-17T11:10:39+01:00*%
%TF.ProjectId,FBG_PCB,4642475f-5043-4422-9e6b-696361645f70,rev?*%
%TF.SameCoordinates,Original*%
%TF.FileFunction,Drillmap*%
%TF.FilePolarity,Positive*%
%FSLAX45Y45*%
G04 Gerber Fmt 4.5, Leading zero omitted, Abs format (unit mm)*
G04 Created by KiCad (PCBNEW 9.0.0) date 2025-03-17 11:10:39*
%MOMM*%
%LPD*%
G01*
G04 APERTURE LIST*
%ADD10C,0.038100*%
%ADD11C,0.200000*%
%ADD12C,0.100000*%
%ADD13C,0.109000*%
%ADD14C,0.170000*%
G04 APERTURE END LIST*
D10*
X23000000Y20000000D02*
X38000000Y20000000D01*
X38000000Y10000000D01*
X23000000Y10000000D01*
X23000000Y20000000D01*
D11*
D12*
X29290000Y16270000D02*
X29370000Y16190000D01*
X29370000Y16270000D02*
X29290000Y16190000D01*
X29290000Y15840000D02*
X29370000Y15760000D01*
X29370000Y15840000D02*
X29290000Y15760000D01*
X29290000Y15440000D02*
X29370000Y15360000D01*
X29370000Y15440000D02*
X29290000Y15360000D01*
X29290000Y15040000D02*
X29370000Y14960000D01*
X29370000Y15040000D02*
X29290000Y14960000D01*
X29290000Y14640000D02*
X29370000Y14560000D01*
X29370000Y14640000D02*
X29290000Y14560000D01*
X29290000Y14240000D02*
X29370000Y14160000D01*
X29370000Y14240000D02*
X29290000Y14160000D01*
X29290000Y13840000D02*
X29370000Y13760000D01*
X29370000Y13840000D02*
X29290000Y13760000D01*
X29290000Y13440000D02*
X29370000Y13360000D01*
X29370000Y13440000D02*
X29290000Y13360000D01*
X30306000Y16270000D02*
X30386000Y16190000D01*
X30386000Y16270000D02*
X30306000Y16190000D01*
X30306000Y15840000D02*
X30386000Y15760000D01*
X30386000Y15840000D02*
X30306000Y15760000D01*
X30306000Y15440000D02*
X30386000Y15360000D01*
X30386000Y15440000D02*
X30306000Y15360000D01*
X30306000Y15040000D02*
X30386000Y14960000D01*
X30386000Y15040000D02*
X30306000Y14960000D01*
X30306000Y14640000D02*
X30386000Y14560000D01*
X30386000Y14640000D02*
X30306000Y14560000D01*
X30306000Y14240000D02*
X30386000Y14160000D01*
X30386000Y14240000D02*
X30306000Y14160000D01*
X30306000Y13840000D02*
X30386000Y13760000D01*
X30386000Y13840000D02*
X30306000Y13760000D01*
X30306000Y13440000D02*
X30386000Y13360000D01*
X30386000Y13440000D02*
X30306000Y13360000D01*
X30649000Y16270000D02*
X30729000Y16190000D01*
X30729000Y16270000D02*
X30649000Y16190000D01*
X30649000Y15840000D02*
X30729000Y15760000D01*
X30729000Y15840000D02*
X30649000Y15760000D01*
X30649000Y15440000D02*
X30729000Y15360000D01*
X30729000Y15440000D02*
X30649000Y15360000D01*
X30649000Y15040000D02*
X30729000Y14960000D01*
X30729000Y15040000D02*
X30649000Y14960000D01*
X30649000Y14640000D02*
X30729000Y14560000D01*
X30729000Y14640000D02*
X30649000Y14560000D01*
X30649000Y14240000D02*
X30729000Y14160000D01*
X30729000Y14240000D02*
X30649000Y14160000D01*
X30649000Y13840000D02*
X30729000Y13760000D01*
X30729000Y13840000D02*
X30649000Y13760000D01*
X30649000Y13440000D02*
X30729000Y13360000D01*
X30729000Y13440000D02*
X30649000Y13360000D01*
X31665000Y16270000D02*
X31745000Y16190000D01*
X31745000Y16270000D02*
X31665000Y16190000D01*
X31665000Y15840000D02*
X31745000Y15760000D01*
X31745000Y15840000D02*
X31665000Y15760000D01*
X31665000Y15440000D02*
X31745000Y15360000D01*
X31745000Y15440000D02*
X31665000Y15360000D01*
X31665000Y15040000D02*
X31745000Y14960000D01*
X31745000Y15040000D02*
X31665000Y14960000D01*
X31665000Y14640000D02*
X31745000Y14560000D01*
X31745000Y14640000D02*
X31665000Y14560000D01*
X31665000Y14240000D02*
X31745000Y14160000D01*
X31745000Y14240000D02*
X31665000Y14160000D01*
X31665000Y13840000D02*
X31745000Y13760000D01*
X31745000Y13840000D02*
X31665000Y13760000D01*
X31665000Y13440000D02*
X31745000Y13360000D01*
X31745000Y13440000D02*
X31665000Y13360000D01*
D13*
X23611500Y19471467D02*
G75*
G02*
X23502500Y19471467I-54500J0D01*
G01*
X23502500Y19471467D02*
G75*
G02*
X23611500Y19471467I54500J0D01*
G01*
X23754500Y17662000D02*
G75*
G02*
X23645500Y17662000I-54500J0D01*
G01*
X23645500Y17662000D02*
G75*
G02*
X23754500Y17662000I54500J0D01*
G01*
X23754500Y17408000D02*
G75*
G02*
X23645500Y17408000I-54500J0D01*
G01*
X23645500Y17408000D02*
G75*
G02*
X23754500Y17408000I54500J0D01*
G01*
X23754500Y17154000D02*
G75*
G02*
X23645500Y17154000I-54500J0D01*
G01*
X23645500Y17154000D02*
G75*
G02*
X23754500Y17154000I54500J0D01*
G01*
X23754500Y16900000D02*
G75*
G02*
X23645500Y16900000I-54500J0D01*
G01*
X23645500Y16900000D02*
G75*
G02*
X23754500Y16900000I54500J0D01*
G01*
X23754500Y14272250D02*
G75*
G02*
X23645500Y14272250I-54500J0D01*
G01*
X23645500Y14272250D02*
G75*
G02*
X23754500Y14272250I54500J0D01*
G01*
X23754500Y14018250D02*
G75*
G02*
X23645500Y14018250I-54500J0D01*
G01*
X23645500Y14018250D02*
G75*
G02*
X23754500Y14018250I54500J0D01*
G01*
X23754500Y13764250D02*
G75*
G02*
X23645500Y13764250I-54500J0D01*
G01*
X23645500Y13764250D02*
G75*
G02*
X23754500Y13764250I54500J0D01*
G01*
X23754500Y13510250D02*
G75*
G02*
X23645500Y13510250I-54500J0D01*
G01*
X23645500Y13510250D02*
G75*
G02*
X23754500Y13510250I54500J0D01*
G01*
X23779500Y15917125D02*
G75*
G02*
X23670500Y15917125I-54500J0D01*
G01*
X23670500Y15917125D02*
G75*
G02*
X23779500Y15917125I54500J0D01*
G01*
X23779500Y15663125D02*
G75*
G02*
X23670500Y15663125I-54500J0D01*
G01*
X23670500Y15663125D02*
G75*
G02*
X23779500Y15663125I54500J0D01*
G01*
X23779500Y15409125D02*
G75*
G02*
X23670500Y15409125I-54500J0D01*
G01*
X23670500Y15409125D02*
G75*
G02*
X23779500Y15409125I54500J0D01*
G01*
X23779500Y15155125D02*
G75*
G02*
X23670500Y15155125I-54500J0D01*
G01*
X23670500Y15155125D02*
G75*
G02*
X23779500Y15155125I54500J0D01*
G01*
X23865500Y19471467D02*
G75*
G02*
X23756500Y19471467I-54500J0D01*
G01*
X23756500Y19471467D02*
G75*
G02*
X23865500Y19471467I54500J0D01*
G01*
X24119500Y19471467D02*
G75*
G02*
X24010500Y19471467I-54500J0D01*
G01*
X24010500Y19471467D02*
G75*
G02*
X24119500Y19471467I54500J0D01*
G01*
X24373500Y19471467D02*
G75*
G02*
X24264500Y19471467I-54500J0D01*
G01*
X24264500Y19471467D02*
G75*
G02*
X24373500Y19471467I54500J0D01*
G01*
X25474786Y19471467D02*
G75*
G02*
X25365786Y19471467I-54500J0D01*
G01*
X25365786Y19471467D02*
G75*
G02*
X25474786Y19471467I54500J0D01*
G01*
X25474786Y17500000D02*
G75*
G02*
X25365786Y17500000I-54500J0D01*
G01*
X25365786Y17500000D02*
G75*
G02*
X25474786Y17500000I54500J0D01*
G01*
X25728786Y19471467D02*
G75*
G02*
X25619786Y19471467I-54500J0D01*
G01*
X25619786Y19471467D02*
G75*
G02*
X25728786Y19471467I54500J0D01*
G01*
X25728786Y17500000D02*
G75*
G02*
X25619786Y17500000I-54500J0D01*
G01*
X25619786Y17500000D02*
G75*
G02*
X25728786Y17500000I54500J0D01*
G01*
X25982786Y19471467D02*
G75*
G02*
X25873786Y19471467I-54500J0D01*
G01*
X25873786Y19471467D02*
G75*
G02*
X25982786Y19471467I54500J0D01*
G01*
X25982786Y17500000D02*
G75*
G02*
X25873786Y17500000I-54500J0D01*
G01*
X25873786Y17500000D02*
G75*
G02*
X25982786Y17500000I54500J0D01*
G01*
X26186500Y16000000D02*
G75*
G02*
X26077500Y16000000I-54500J0D01*
G01*
X26077500Y16000000D02*
G75*
G02*
X26186500Y16000000I54500J0D01*
G01*
X26186500Y15746000D02*
G75*
G02*
X26077500Y15746000I-54500J0D01*
G01*
X26077500Y15746000D02*
G75*
G02*
X26186500Y15746000I54500J0D01*
G01*
X26186500Y15492000D02*
G75*
G02*
X26077500Y15492000I-54500J0D01*
G01*
X26077500Y15492000D02*
G75*
G02*
X26186500Y15492000I54500J0D01*
G01*
X26186500Y15238000D02*
G75*
G02*
X26077500Y15238000I-54500J0D01*
G01*
X26077500Y15238000D02*
G75*
G02*
X26186500Y15238000I54500J0D01*
G01*
X26186500Y14208000D02*
G75*
G02*
X26077500Y14208000I-54500J0D01*
G01*
X26077500Y14208000D02*
G75*
G02*
X26186500Y14208000I54500J0D01*
G01*
X26186500Y13954000D02*
G75*
G02*
X26077500Y13954000I-54500J0D01*
G01*
X26077500Y13954000D02*
G75*
G02*
X26186500Y13954000I54500J0D01*
G01*
X26186500Y13700000D02*
G75*
G02*
X26077500Y13700000I-54500J0D01*
G01*
X26077500Y13700000D02*
G75*
G02*
X26186500Y13700000I54500J0D01*
G01*
X26186500Y13446000D02*
G75*
G02*
X26077500Y13446000I-54500J0D01*
G01*
X26077500Y13446000D02*
G75*
G02*
X26186500Y13446000I54500J0D01*
G01*
X26236786Y19471467D02*
G75*
G02*
X26127786Y19471467I-54500J0D01*
G01*
X26127786Y19471467D02*
G75*
G02*
X26236786Y19471467I54500J0D01*
G01*
X26236786Y17500000D02*
G75*
G02*
X26127786Y17500000I-54500J0D01*
G01*
X26127786Y17500000D02*
G75*
G02*
X26236786Y17500000I54500J0D01*
G01*
X26492500Y12000000D02*
G75*
G02*
X26383500Y12000000I-54500J0D01*
G01*
X26383500Y12000000D02*
G75*
G02*
X26492500Y12000000I54500J0D01*
G01*
X26492500Y10775000D02*
G75*
G02*
X26383500Y10775000I-54500J0D01*
G01*
X26383500Y10775000D02*
G75*
G02*
X26492500Y10775000I54500J0D01*
G01*
X26746500Y12000000D02*
G75*
G02*
X26637500Y12000000I-54500J0D01*
G01*
X26637500Y12000000D02*
G75*
G02*
X26746500Y12000000I54500J0D01*
G01*
X26746500Y10775000D02*
G75*
G02*
X26637500Y10775000I-54500J0D01*
G01*
X26637500Y10775000D02*
G75*
G02*
X26746500Y10775000I54500J0D01*
G01*
X27000500Y12000000D02*
G75*
G02*
X26891500Y12000000I-54500J0D01*
G01*
X26891500Y12000000D02*
G75*
G02*
X27000500Y12000000I54500J0D01*
G01*
X27000500Y10775000D02*
G75*
G02*
X26891500Y10775000I-54500J0D01*
G01*
X26891500Y10775000D02*
G75*
G02*
X27000500Y10775000I54500J0D01*
G01*
X27254500Y12000000D02*
G75*
G02*
X27145500Y12000000I-54500J0D01*
G01*
X27145500Y12000000D02*
G75*
G02*
X27254500Y12000000I54500J0D01*
G01*
X27254500Y10775000D02*
G75*
G02*
X27145500Y10775000I-54500J0D01*
G01*
X27145500Y10775000D02*
G75*
G02*
X27254500Y10775000I54500J0D01*
G01*
X27338071Y19471467D02*
G75*
G02*
X27229071Y19471467I-54500J0D01*
G01*
X27229071Y19471467D02*
G75*
G02*
X27338071Y19471467I54500J0D01*
G01*
X27338071Y17500000D02*
G75*
G02*
X27229071Y17500000I-54500J0D01*
G01*
X27229071Y17500000D02*
G75*
G02*
X27338071Y17500000I54500J0D01*
G01*
X27592071Y19471467D02*
G75*
G02*
X27483071Y19471467I-54500J0D01*
G01*
X27483071Y19471467D02*
G75*
G02*
X27592071Y19471467I54500J0D01*
G01*
X27592071Y17500000D02*
G75*
G02*
X27483071Y17500000I-54500J0D01*
G01*
X27483071Y17500000D02*
G75*
G02*
X27592071Y17500000I54500J0D01*
G01*
X27846071Y19471467D02*
G75*
G02*
X27737071Y19471467I-54500J0D01*
G01*
X27737071Y19471467D02*
G75*
G02*
X27846071Y19471467I54500J0D01*
G01*
X27846071Y17500000D02*
G75*
G02*
X27737071Y17500000I-54500J0D01*
G01*
X27737071Y17500000D02*
G75*
G02*
X27846071Y17500000I54500J0D01*
G01*
X27892500Y16000000D02*
G75*
G02*
X27783500Y16000000I-54500J0D01*
G01*
X27783500Y16000000D02*
G75*
G02*
X27892500Y16000000I54500J0D01*
G01*
X27892500Y15746000D02*
G75*
G02*
X27783500Y15746000I-54500J0D01*
G01*
X27783500Y15746000D02*
G75*
G02*
X27892500Y15746000I54500J0D01*
G01*
X27892500Y15492000D02*
G75*
G02*
X27783500Y15492000I-54500J0D01*
G01*
X27783500Y15492000D02*
G75*
G02*
X27892500Y15492000I54500J0D01*
G01*
X27892500Y15238000D02*
G75*
G02*
X27783500Y15238000I-54500J0D01*
G01*
X27783500Y15238000D02*
G75*
G02*
X27892500Y15238000I54500J0D01*
G01*
X27892500Y14254000D02*
G75*
G02*
X27783500Y14254000I-54500J0D01*
G01*
X27783500Y14254000D02*
G75*
G02*
X27892500Y14254000I54500J0D01*
G01*
X27892500Y14000000D02*
G75*
G02*
X27783500Y14000000I-54500J0D01*
G01*
X27783500Y14000000D02*
G75*
G02*
X27892500Y14000000I54500J0D01*
G01*
X27892500Y13746000D02*
G75*
G02*
X27783500Y13746000I-54500J0D01*
G01*
X27783500Y13746000D02*
G75*
G02*
X27892500Y13746000I54500J0D01*
G01*
X27892500Y13492000D02*
G75*
G02*
X27783500Y13492000I-54500J0D01*
G01*
X27783500Y13492000D02*
G75*
G02*
X27892500Y13492000I54500J0D01*
G01*
X28100071Y19471467D02*
G75*
G02*
X27991071Y19471467I-54500J0D01*
G01*
X27991071Y19471467D02*
G75*
G02*
X28100071Y19471467I54500J0D01*
G01*
X28100071Y17500000D02*
G75*
G02*
X27991071Y17500000I-54500J0D01*
G01*
X27991071Y17500000D02*
G75*
G02*
X28100071Y17500000I54500J0D01*
G01*
X28492500Y12000000D02*
G75*
G02*
X28383500Y12000000I-54500J0D01*
G01*
X28383500Y12000000D02*
G75*
G02*
X28492500Y12000000I54500J0D01*
G01*
X28492500Y10775000D02*
G75*
G02*
X28383500Y10775000I-54500J0D01*
G01*
X28383500Y10775000D02*
G75*
G02*
X28492500Y10775000I54500J0D01*
G01*
X28746500Y12000000D02*
G75*
G02*
X28637500Y12000000I-54500J0D01*
G01*
X28637500Y12000000D02*
G75*
G02*
X28746500Y12000000I54500J0D01*
G01*
X28746500Y10775000D02*
G75*
G02*
X28637500Y10775000I-54500J0D01*
G01*
X28637500Y10775000D02*
G75*
G02*
X28746500Y10775000I54500J0D01*
G01*
X29000500Y12000000D02*
G75*
G02*
X28891500Y12000000I-54500J0D01*
G01*
X28891500Y12000000D02*
G75*
G02*
X29000500Y12000000I54500J0D01*
G01*
X29000500Y10775000D02*
G75*
G02*
X28891500Y10775000I-54500J0D01*
G01*
X28891500Y10775000D02*
G75*
G02*
X29000500Y10775000I54500J0D01*
G01*
X29201357Y19471467D02*
G75*
G02*
X29092357Y19471467I-54500J0D01*
G01*
X29092357Y19471467D02*
G75*
G02*
X29201357Y19471467I54500J0D01*
G01*
X29201357Y17500000D02*
G75*
G02*
X29092357Y17500000I-54500J0D01*
G01*
X29092357Y17500000D02*
G75*
G02*
X29201357Y17500000I54500J0D01*
G01*
X29254500Y12000000D02*
G75*
G02*
X29145500Y12000000I-54500J0D01*
G01*
X29145500Y12000000D02*
G75*
G02*
X29254500Y12000000I54500J0D01*
G01*
X29254500Y10775000D02*
G75*
G02*
X29145500Y10775000I-54500J0D01*
G01*
X29145500Y10775000D02*
G75*
G02*
X29254500Y10775000I54500J0D01*
G01*
X29455357Y19471467D02*
G75*
G02*
X29346357Y19471467I-54500J0D01*
G01*
X29346357Y19471467D02*
G75*
G02*
X29455357Y19471467I54500J0D01*
G01*
X29455357Y17500000D02*
G75*
G02*
X29346357Y17500000I-54500J0D01*
G01*
X29346357Y17500000D02*
G75*
G02*
X29455357Y17500000I54500J0D01*
G01*
X29709357Y19471467D02*
G75*
G02*
X29600357Y19471467I-54500J0D01*
G01*
X29600357Y19471467D02*
G75*
G02*
X29709357Y19471467I54500J0D01*
G01*
X29709357Y17500000D02*
G75*
G02*
X29600357Y17500000I-54500J0D01*
G01*
X29600357Y17500000D02*
G75*
G02*
X29709357Y17500000I54500J0D01*
G01*
X29963357Y19471467D02*
G75*
G02*
X29854357Y19471467I-54500J0D01*
G01*
X29854357Y19471467D02*
G75*
G02*
X29963357Y19471467I54500J0D01*
G01*
X29963357Y17500000D02*
G75*
G02*
X29854357Y17500000I-54500J0D01*
G01*
X29854357Y17500000D02*
G75*
G02*
X29963357Y17500000I54500J0D01*
G01*
X30592500Y12000000D02*
G75*
G02*
X30483500Y12000000I-54500J0D01*
G01*
X30483500Y12000000D02*
G75*
G02*
X30592500Y12000000I54500J0D01*
G01*
X30592500Y10775000D02*
G75*
G02*
X30483500Y10775000I-54500J0D01*
G01*
X30483500Y10775000D02*
G75*
G02*
X30592500Y10775000I54500J0D01*
G01*
X30846500Y12000000D02*
G75*
G02*
X30737500Y12000000I-54500J0D01*
G01*
X30737500Y12000000D02*
G75*
G02*
X30846500Y12000000I54500J0D01*
G01*
X30846500Y10775000D02*
G75*
G02*
X30737500Y10775000I-54500J0D01*
G01*
X30737500Y10775000D02*
G75*
G02*
X30846500Y10775000I54500J0D01*
G01*
X31064643Y19471467D02*
G75*
G02*
X30955643Y19471467I-54500J0D01*
G01*
X30955643Y19471467D02*
G75*
G02*
X31064643Y19471467I54500J0D01*
G01*
X31064643Y17500000D02*
G75*
G02*
X30955643Y17500000I-54500J0D01*
G01*
X30955643Y17500000D02*
G75*
G02*
X31064643Y17500000I54500J0D01*
G01*
X31100500Y12000000D02*
G75*
G02*
X30991500Y12000000I-54500J0D01*
G01*
X30991500Y12000000D02*
G75*
G02*
X31100500Y12000000I54500J0D01*
G01*
X31100500Y10775000D02*
G75*
G02*
X30991500Y10775000I-54500J0D01*
G01*
X30991500Y10775000D02*
G75*
G02*
X31100500Y10775000I54500J0D01*
G01*
X31318643Y19471467D02*
G75*
G02*
X31209643Y19471467I-54500J0D01*
G01*
X31209643Y19471467D02*
G75*
G02*
X31318643Y19471467I54500J0D01*
G01*
X31318643Y17500000D02*
G75*
G02*
X31209643Y17500000I-54500J0D01*
G01*
X31209643Y17500000D02*
G75*
G02*
X31318643Y17500000I54500J0D01*
G01*
X31354500Y12000000D02*
G75*
G02*
X31245500Y12000000I-54500J0D01*
G01*
X31245500Y12000000D02*
G75*
G02*
X31354500Y12000000I54500J0D01*
G01*
X31354500Y10775000D02*
G75*
G02*
X31245500Y10775000I-54500J0D01*
G01*
X31245500Y10775000D02*
G75*
G02*
X31354500Y10775000I54500J0D01*
G01*
X31572643Y19471467D02*
G75*
G02*
X31463643Y19471467I-54500J0D01*
G01*
X31463643Y19471467D02*
G75*
G02*
X31572643Y19471467I54500J0D01*
G01*
X31572643Y17500000D02*
G75*
G02*
X31463643Y17500000I-54500J0D01*
G01*
X31463643Y17500000D02*
G75*
G02*
X31572643Y17500000I54500J0D01*
G01*
X31826643Y19471467D02*
G75*
G02*
X31717643Y19471467I-54500J0D01*
G01*
X31717643Y19471467D02*
G75*
G02*
X31826643Y19471467I54500J0D01*
G01*
X31826643Y17500000D02*
G75*
G02*
X31717643Y17500000I-54500J0D01*
G01*
X31717643Y17500000D02*
G75*
G02*
X31826643Y17500000I54500J0D01*
G01*
X32575900Y10775000D02*
G75*
G02*
X32466900Y10775000I-54500J0D01*
G01*
X32466900Y10775000D02*
G75*
G02*
X32575900Y10775000I54500J0D01*
G01*
X32829900Y10775000D02*
G75*
G02*
X32720900Y10775000I-54500J0D01*
G01*
X32720900Y10775000D02*
G75*
G02*
X32829900Y10775000I54500J0D01*
G01*
X32927929Y19471467D02*
G75*
G02*
X32818929Y19471467I-54500J0D01*
G01*
X32818929Y19471467D02*
G75*
G02*
X32927929Y19471467I54500J0D01*
G01*
X32927929Y17500000D02*
G75*
G02*
X32818929Y17500000I-54500J0D01*
G01*
X32818929Y17500000D02*
G75*
G02*
X32927929Y17500000I54500J0D01*
G01*
X32927929Y16100000D02*
G75*
G02*
X32818929Y16100000I-54500J0D01*
G01*
X32818929Y16100000D02*
G75*
G02*
X32927929Y16100000I54500J0D01*
G01*
X33083900Y10775000D02*
G75*
G02*
X32974900Y10775000I-54500J0D01*
G01*
X32974900Y10775000D02*
G75*
G02*
X33083900Y10775000I54500J0D01*
G01*
X33181929Y19471467D02*
G75*
G02*
X33072929Y19471467I-54500J0D01*
G01*
X33072929Y19471467D02*
G75*
G02*
X33181929Y19471467I54500J0D01*
G01*
X33181929Y17500000D02*
G75*
G02*
X33072929Y17500000I-54500J0D01*
G01*
X33072929Y17500000D02*
G75*
G02*
X33181929Y17500000I54500J0D01*
G01*
X33181929Y16100000D02*
G75*
G02*
X33072929Y16100000I-54500J0D01*
G01*
X33072929Y16100000D02*
G75*
G02*
X33181929Y16100000I54500J0D01*
G01*
X33337900Y10775000D02*
G75*
G02*
X33228900Y10775000I-54500J0D01*
G01*
X33228900Y10775000D02*
G75*
G02*
X33337900Y10775000I54500J0D01*
G01*
X33435929Y19471467D02*
G75*
G02*
X33326929Y19471467I-54500J0D01*
G01*
X33326929Y19471467D02*
G75*
G02*
X33435929Y19471467I54500J0D01*
G01*
X33435929Y17500000D02*
G75*
G02*
X33326929Y17500000I-54500J0D01*
G01*
X33326929Y17500000D02*
G75*
G02*
X33435929Y17500000I54500J0D01*
G01*
X33435929Y16100000D02*
G75*
G02*
X33326929Y16100000I-54500J0D01*
G01*
X33326929Y16100000D02*
G75*
G02*
X33435929Y16100000I54500J0D01*
G01*
X33689929Y19471467D02*
G75*
G02*
X33580929Y19471467I-54500J0D01*
G01*
X33580929Y19471467D02*
G75*
G02*
X33689929Y19471467I54500J0D01*
G01*
X33689929Y17500000D02*
G75*
G02*
X33580929Y17500000I-54500J0D01*
G01*
X33580929Y17500000D02*
G75*
G02*
X33689929Y17500000I54500J0D01*
G01*
X33689929Y16100000D02*
G75*
G02*
X33580929Y16100000I-54500J0D01*
G01*
X33580929Y16100000D02*
G75*
G02*
X33689929Y16100000I54500J0D01*
G01*
X33904500Y12781000D02*
G75*
G02*
X33795500Y12781000I-54500J0D01*
G01*
X33795500Y12781000D02*
G75*
G02*
X33904500Y12781000I54500J0D01*
G01*
X33904500Y12527000D02*
G75*
G02*
X33795500Y12527000I-54500J0D01*
G01*
X33795500Y12527000D02*
G75*
G02*
X33904500Y12527000I54500J0D01*
G01*
X33904500Y12273000D02*
G75*
G02*
X33795500Y12273000I-54500J0D01*
G01*
X33795500Y12273000D02*
G75*
G02*
X33904500Y12273000I54500J0D01*
G01*
X33904500Y12019000D02*
G75*
G02*
X33795500Y12019000I-54500J0D01*
G01*
X33795500Y12019000D02*
G75*
G02*
X33904500Y12019000I54500J0D01*
G01*
X34054500Y14708000D02*
G75*
G02*
X33945500Y14708000I-54500J0D01*
G01*
X33945500Y14708000D02*
G75*
G02*
X34054500Y14708000I54500J0D01*
G01*
X34054500Y14454000D02*
G75*
G02*
X33945500Y14454000I-54500J0D01*
G01*
X33945500Y14454000D02*
G75*
G02*
X34054500Y14454000I54500J0D01*
G01*
X34054500Y14200000D02*
G75*
G02*
X33945500Y14200000I-54500J0D01*
G01*
X33945500Y14200000D02*
G75*
G02*
X34054500Y14200000I54500J0D01*
G01*
X34054500Y13946000D02*
G75*
G02*
X33945500Y13946000I-54500J0D01*
G01*
X33945500Y13946000D02*
G75*
G02*
X34054500Y13946000I54500J0D01*
G01*
X34603700Y10775000D02*
G75*
G02*
X34494700Y10775000I-54500J0D01*
G01*
X34494700Y10775000D02*
G75*
G02*
X34603700Y10775000I54500J0D01*
G01*
X34791214Y19471467D02*
G75*
G02*
X34682214Y19471467I-54500J0D01*
G01*
X34682214Y19471467D02*
G75*
G02*
X34791214Y19471467I54500J0D01*
G01*
X34791214Y17500000D02*
G75*
G02*
X34682214Y17500000I-54500J0D01*
G01*
X34682214Y17500000D02*
G75*
G02*
X34791214Y17500000I54500J0D01*
G01*
X34857700Y10775000D02*
G75*
G02*
X34748700Y10775000I-54500J0D01*
G01*
X34748700Y10775000D02*
G75*
G02*
X34857700Y10775000I54500J0D01*
G01*
X35045214Y19471467D02*
G75*
G02*
X34936214Y19471467I-54500J0D01*
G01*
X34936214Y19471467D02*
G75*
G02*
X35045214Y19471467I54500J0D01*
G01*
X35045214Y17500000D02*
G75*
G02*
X34936214Y17500000I-54500J0D01*
G01*
X34936214Y17500000D02*
G75*
G02*
X35045214Y17500000I54500J0D01*
G01*
X35111700Y10775000D02*
G75*
G02*
X35002700Y10775000I-54500J0D01*
G01*
X35002700Y10775000D02*
G75*
G02*
X35111700Y10775000I54500J0D01*
G01*
X35299214Y19471467D02*
G75*
G02*
X35190214Y19471467I-54500J0D01*
G01*
X35190214Y19471467D02*
G75*
G02*
X35299214Y19471467I54500J0D01*
G01*
X35299214Y17500000D02*
G75*
G02*
X35190214Y17500000I-54500J0D01*
G01*
X35190214Y17500000D02*
G75*
G02*
X35299214Y17500000I54500J0D01*
G01*
X35365700Y10775000D02*
G75*
G02*
X35256700Y10775000I-54500J0D01*
G01*
X35256700Y10775000D02*
G75*
G02*
X35365700Y10775000I54500J0D01*
G01*
X35404500Y12781000D02*
G75*
G02*
X35295500Y12781000I-54500J0D01*
G01*
X35295500Y12781000D02*
G75*
G02*
X35404500Y12781000I54500J0D01*
G01*
X35404500Y12527000D02*
G75*
G02*
X35295500Y12527000I-54500J0D01*
G01*
X35295500Y12527000D02*
G75*
G02*
X35404500Y12527000I54500J0D01*
G01*
X35404500Y12273000D02*
G75*
G02*
X35295500Y12273000I-54500J0D01*
G01*
X35295500Y12273000D02*
G75*
G02*
X35404500Y12273000I54500J0D01*
G01*
X35404500Y12019000D02*
G75*
G02*
X35295500Y12019000I-54500J0D01*
G01*
X35295500Y12019000D02*
G75*
G02*
X35404500Y12019000I54500J0D01*
G01*
X35553214Y19471467D02*
G75*
G02*
X35444214Y19471467I-54500J0D01*
G01*
X35444214Y19471467D02*
G75*
G02*
X35553214Y19471467I54500J0D01*
G01*
X35553214Y17500000D02*
G75*
G02*
X35444214Y17500000I-54500J0D01*
G01*
X35444214Y17500000D02*
G75*
G02*
X35553214Y17500000I54500J0D01*
G01*
X35554500Y14708000D02*
G75*
G02*
X35445500Y14708000I-54500J0D01*
G01*
X35445500Y14708000D02*
G75*
G02*
X35554500Y14708000I54500J0D01*
G01*
X35554500Y14454000D02*
G75*
G02*
X35445500Y14454000I-54500J0D01*
G01*
X35445500Y14454000D02*
G75*
G02*
X35554500Y14454000I54500J0D01*
G01*
X35554500Y14200000D02*
G75*
G02*
X35445500Y14200000I-54500J0D01*
G01*
X35445500Y14200000D02*
G75*
G02*
X35554500Y14200000I54500J0D01*
G01*
X35554500Y13946000D02*
G75*
G02*
X35445500Y13946000I-54500J0D01*
G01*
X35445500Y13946000D02*
G75*
G02*
X35554500Y13946000I54500J0D01*
G01*
X36631500Y10775000D02*
G75*
G02*
X36522500Y10775000I-54500J0D01*
G01*
X36522500Y10775000D02*
G75*
G02*
X36631500Y10775000I54500J0D01*
G01*
X36654500Y19471467D02*
G75*
G02*
X36545500Y19471467I-54500J0D01*
G01*
X36545500Y19471467D02*
G75*
G02*
X36654500Y19471467I54500J0D01*
G01*
X36885500Y10775000D02*
G75*
G02*
X36776500Y10775000I-54500J0D01*
G01*
X36776500Y10775000D02*
G75*
G02*
X36885500Y10775000I54500J0D01*
G01*
X36908500Y19471467D02*
G75*
G02*
X36799500Y19471467I-54500J0D01*
G01*
X36799500Y19471467D02*
G75*
G02*
X36908500Y19471467I54500J0D01*
G01*
X37139500Y10775000D02*
G75*
G02*
X37030500Y10775000I-54500J0D01*
G01*
X37030500Y10775000D02*
G75*
G02*
X37139500Y10775000I54500J0D01*
G01*
X37162500Y19471467D02*
G75*
G02*
X37053500Y19471467I-54500J0D01*
G01*
X37053500Y19471467D02*
G75*
G02*
X37162500Y19471467I54500J0D01*
G01*
X37254500Y17681000D02*
G75*
G02*
X37145500Y17681000I-54500J0D01*
G01*
X37145500Y17681000D02*
G75*
G02*
X37254500Y17681000I54500J0D01*
G01*
X37254500Y17427000D02*
G75*
G02*
X37145500Y17427000I-54500J0D01*
G01*
X37145500Y17427000D02*
G75*
G02*
X37254500Y17427000I54500J0D01*
G01*
X37254500Y17173000D02*
G75*
G02*
X37145500Y17173000I-54500J0D01*
G01*
X37145500Y17173000D02*
G75*
G02*
X37254500Y17173000I54500J0D01*
G01*
X37254500Y16919000D02*
G75*
G02*
X37145500Y16919000I-54500J0D01*
G01*
X37145500Y16919000D02*
G75*
G02*
X37254500Y16919000I54500J0D01*
G01*
X37254500Y15981000D02*
G75*
G02*
X37145500Y15981000I-54500J0D01*
G01*
X37145500Y15981000D02*
G75*
G02*
X37254500Y15981000I54500J0D01*
G01*
X37254500Y15727000D02*
G75*
G02*
X37145500Y15727000I-54500J0D01*
G01*
X37145500Y15727000D02*
G75*
G02*
X37254500Y15727000I54500J0D01*
G01*
X37254500Y15473000D02*
G75*
G02*
X37145500Y15473000I-54500J0D01*
G01*
X37145500Y15473000D02*
G75*
G02*
X37254500Y15473000I54500J0D01*
G01*
X37254500Y15219000D02*
G75*
G02*
X37145500Y15219000I-54500J0D01*
G01*
X37145500Y15219000D02*
G75*
G02*
X37254500Y15219000I54500J0D01*
G01*
X37254500Y14354000D02*
G75*
G02*
X37145500Y14354000I-54500J0D01*
G01*
X37145500Y14354000D02*
G75*
G02*
X37254500Y14354000I54500J0D01*
G01*
X37254500Y14100000D02*
G75*
G02*
X37145500Y14100000I-54500J0D01*
G01*
X37145500Y14100000D02*
G75*
G02*
X37254500Y14100000I54500J0D01*
G01*
X37254500Y13846000D02*
G75*
G02*
X37145500Y13846000I-54500J0D01*
G01*
X37145500Y13846000D02*
G75*
G02*
X37254500Y13846000I54500J0D01*
G01*
X37254500Y13592000D02*
G75*
G02*
X37145500Y13592000I-54500J0D01*
G01*
X37145500Y13592000D02*
G75*
G02*
X37254500Y13592000I54500J0D01*
G01*
X37254500Y12762000D02*
G75*
G02*
X37145500Y12762000I-54500J0D01*
G01*
X37145500Y12762000D02*
G75*
G02*
X37254500Y12762000I54500J0D01*
G01*
X37254500Y12508000D02*
G75*
G02*
X37145500Y12508000I-54500J0D01*
G01*
X37145500Y12508000D02*
G75*
G02*
X37254500Y12508000I54500J0D01*
G01*
X37254500Y12254000D02*
G75*
G02*
X37145500Y12254000I-54500J0D01*
G01*
X37145500Y12254000D02*
G75*
G02*
X37254500Y12254000I54500J0D01*
G01*
X37254500Y12000000D02*
G75*
G02*
X37145500Y12000000I-54500J0D01*
G01*
X37145500Y12000000D02*
G75*
G02*
X37254500Y12000000I54500J0D01*
G01*
X37393500Y10775000D02*
G75*
G02*
X37284500Y10775000I-54500J0D01*
G01*
X37284500Y10775000D02*
G75*
G02*
X37393500Y10775000I54500J0D01*
G01*
X37416500Y19471467D02*
G75*
G02*
X37307500Y19471467I-54500J0D01*
G01*
X37307500Y19471467D02*
G75*
G02*
X37416500Y19471467I54500J0D01*
G01*
D14*
X23800000Y12612375D02*
X23800000Y12442375D01*
X23715000Y12527375D02*
X23885000Y12527375D01*
X23800000Y12112375D02*
X23800000Y11942375D01*
X23715000Y12027375D02*
X23885000Y12027375D01*
X23800000Y11085000D02*
X23800000Y10915000D01*
X23715000Y11000000D02*
X23885000Y11000000D01*
X23800000Y10585000D02*
X23800000Y10415000D01*
X23715000Y10500000D02*
X23885000Y10500000D01*
D11*
X23258872Y9686611D02*
X23258872Y9886611D01*
X23258872Y9886611D02*
X23306491Y9886611D01*
X23306491Y9886611D02*
X23335062Y9877087D01*
X23335062Y9877087D02*
X23354110Y9858040D01*
X23354110Y9858040D02*
X23363634Y9838992D01*
X23363634Y9838992D02*
X23373157Y9800897D01*
X23373157Y9800897D02*
X23373157Y9772325D01*
X23373157Y9772325D02*
X23363634Y9734230D01*
X23363634Y9734230D02*
X23354110Y9715183D01*
X23354110Y9715183D02*
X23335062Y9696135D01*
X23335062Y9696135D02*
X23306491Y9686611D01*
X23306491Y9686611D02*
X23258872Y9686611D01*
X23458872Y9686611D02*
X23458872Y9819945D01*
X23458872Y9781849D02*
X23468396Y9800897D01*
X23468396Y9800897D02*
X23477919Y9810421D01*
X23477919Y9810421D02*
X23496967Y9819945D01*
X23496967Y9819945D02*
X23516015Y9819945D01*
X23582681Y9686611D02*
X23582681Y9819945D01*
X23582681Y9886611D02*
X23573157Y9877087D01*
X23573157Y9877087D02*
X23582681Y9867564D01*
X23582681Y9867564D02*
X23592205Y9877087D01*
X23592205Y9877087D02*
X23582681Y9886611D01*
X23582681Y9886611D02*
X23582681Y9867564D01*
X23706491Y9686611D02*
X23687443Y9696135D01*
X23687443Y9696135D02*
X23677919Y9715183D01*
X23677919Y9715183D02*
X23677919Y9886611D01*
X23811253Y9686611D02*
X23792205Y9696135D01*
X23792205Y9696135D02*
X23782681Y9715183D01*
X23782681Y9715183D02*
X23782681Y9886611D01*
X24039824Y9686611D02*
X24039824Y9886611D01*
X24039824Y9886611D02*
X24106491Y9743754D01*
X24106491Y9743754D02*
X24173157Y9886611D01*
X24173157Y9886611D02*
X24173157Y9686611D01*
X24354110Y9686611D02*
X24354110Y9791373D01*
X24354110Y9791373D02*
X24344586Y9810421D01*
X24344586Y9810421D02*
X24325538Y9819945D01*
X24325538Y9819945D02*
X24287443Y9819945D01*
X24287443Y9819945D02*
X24268396Y9810421D01*
X24354110Y9696135D02*
X24335062Y9686611D01*
X24335062Y9686611D02*
X24287443Y9686611D01*
X24287443Y9686611D02*
X24268396Y9696135D01*
X24268396Y9696135D02*
X24258872Y9715183D01*
X24258872Y9715183D02*
X24258872Y9734230D01*
X24258872Y9734230D02*
X24268396Y9753278D01*
X24268396Y9753278D02*
X24287443Y9762802D01*
X24287443Y9762802D02*
X24335062Y9762802D01*
X24335062Y9762802D02*
X24354110Y9772325D01*
X24449348Y9819945D02*
X24449348Y9619945D01*
X24449348Y9810421D02*
X24468396Y9819945D01*
X24468396Y9819945D02*
X24506491Y9819945D01*
X24506491Y9819945D02*
X24525538Y9810421D01*
X24525538Y9810421D02*
X24535062Y9800897D01*
X24535062Y9800897D02*
X24544586Y9781849D01*
X24544586Y9781849D02*
X24544586Y9724706D01*
X24544586Y9724706D02*
X24535062Y9705659D01*
X24535062Y9705659D02*
X24525538Y9696135D01*
X24525538Y9696135D02*
X24506491Y9686611D01*
X24506491Y9686611D02*
X24468396Y9686611D01*
X24468396Y9686611D02*
X24449348Y9696135D01*
X24630300Y9705659D02*
X24639824Y9696135D01*
X24639824Y9696135D02*
X24630300Y9686611D01*
X24630300Y9686611D02*
X24620777Y9696135D01*
X24620777Y9696135D02*
X24630300Y9705659D01*
X24630300Y9705659D02*
X24630300Y9686611D01*
X24630300Y9810421D02*
X24639824Y9800897D01*
X24639824Y9800897D02*
X24630300Y9791373D01*
X24630300Y9791373D02*
X24620777Y9800897D01*
X24620777Y9800897D02*
X24630300Y9810421D01*
X24630300Y9810421D02*
X24630300Y9791373D01*
D12*
X22918095Y9398095D02*
X22998095Y9318095D01*
X22998095Y9398095D02*
X22918095Y9318095D01*
D11*
X23296967Y9466611D02*
X23316015Y9466611D01*
X23316015Y9466611D02*
X23335062Y9457087D01*
X23335062Y9457087D02*
X23344586Y9447564D01*
X23344586Y9447564D02*
X23354110Y9428516D01*
X23354110Y9428516D02*
X23363634Y9390421D01*
X23363634Y9390421D02*
X23363634Y9342802D01*
X23363634Y9342802D02*
X23354110Y9304706D01*
X23354110Y9304706D02*
X23344586Y9285659D01*
X23344586Y9285659D02*
X23335062Y9276135D01*
X23335062Y9276135D02*
X23316015Y9266611D01*
X23316015Y9266611D02*
X23296967Y9266611D01*
X23296967Y9266611D02*
X23277919Y9276135D01*
X23277919Y9276135D02*
X23268396Y9285659D01*
X23268396Y9285659D02*
X23258872Y9304706D01*
X23258872Y9304706D02*
X23249348Y9342802D01*
X23249348Y9342802D02*
X23249348Y9390421D01*
X23249348Y9390421D02*
X23258872Y9428516D01*
X23258872Y9428516D02*
X23268396Y9447564D01*
X23268396Y9447564D02*
X23277919Y9457087D01*
X23277919Y9457087D02*
X23296967Y9466611D01*
X23449348Y9285659D02*
X23458872Y9276135D01*
X23458872Y9276135D02*
X23449348Y9266611D01*
X23449348Y9266611D02*
X23439824Y9276135D01*
X23439824Y9276135D02*
X23449348Y9285659D01*
X23449348Y9285659D02*
X23449348Y9266611D01*
X23573157Y9380897D02*
X23554110Y9390421D01*
X23554110Y9390421D02*
X23544586Y9399945D01*
X23544586Y9399945D02*
X23535062Y9418992D01*
X23535062Y9418992D02*
X23535062Y9428516D01*
X23535062Y9428516D02*
X23544586Y9447564D01*
X23544586Y9447564D02*
X23554110Y9457087D01*
X23554110Y9457087D02*
X23573157Y9466611D01*
X23573157Y9466611D02*
X23611253Y9466611D01*
X23611253Y9466611D02*
X23630300Y9457087D01*
X23630300Y9457087D02*
X23639824Y9447564D01*
X23639824Y9447564D02*
X23649348Y9428516D01*
X23649348Y9428516D02*
X23649348Y9418992D01*
X23649348Y9418992D02*
X23639824Y9399945D01*
X23639824Y9399945D02*
X23630300Y9390421D01*
X23630300Y9390421D02*
X23611253Y9380897D01*
X23611253Y9380897D02*
X23573157Y9380897D01*
X23573157Y9380897D02*
X23554110Y9371373D01*
X23554110Y9371373D02*
X23544586Y9361849D01*
X23544586Y9361849D02*
X23535062Y9342802D01*
X23535062Y9342802D02*
X23535062Y9304706D01*
X23535062Y9304706D02*
X23544586Y9285659D01*
X23544586Y9285659D02*
X23554110Y9276135D01*
X23554110Y9276135D02*
X23573157Y9266611D01*
X23573157Y9266611D02*
X23611253Y9266611D01*
X23611253Y9266611D02*
X23630300Y9276135D01*
X23630300Y9276135D02*
X23639824Y9285659D01*
X23639824Y9285659D02*
X23649348Y9304706D01*
X23649348Y9304706D02*
X23649348Y9342802D01*
X23649348Y9342802D02*
X23639824Y9361849D01*
X23639824Y9361849D02*
X23630300Y9371373D01*
X23630300Y9371373D02*
X23611253Y9380897D01*
X23773157Y9466611D02*
X23792205Y9466611D01*
X23792205Y9466611D02*
X23811253Y9457087D01*
X23811253Y9457087D02*
X23820777Y9447564D01*
X23820777Y9447564D02*
X23830300Y9428516D01*
X23830300Y9428516D02*
X23839824Y9390421D01*
X23839824Y9390421D02*
X23839824Y9342802D01*
X23839824Y9342802D02*
X23830300Y9304706D01*
X23830300Y9304706D02*
X23820777Y9285659D01*
X23820777Y9285659D02*
X23811253Y9276135D01*
X23811253Y9276135D02*
X23792205Y9266611D01*
X23792205Y9266611D02*
X23773157Y9266611D01*
X23773157Y9266611D02*
X23754110Y9276135D01*
X23754110Y9276135D02*
X23744586Y9285659D01*
X23744586Y9285659D02*
X23735062Y9304706D01*
X23735062Y9304706D02*
X23725538Y9342802D01*
X23725538Y9342802D02*
X23725538Y9390421D01*
X23725538Y9390421D02*
X23735062Y9428516D01*
X23735062Y9428516D02*
X23744586Y9447564D01*
X23744586Y9447564D02*
X23754110Y9457087D01*
X23754110Y9457087D02*
X23773157Y9466611D01*
X23963634Y9466611D02*
X23982681Y9466611D01*
X23982681Y9466611D02*
X24001729Y9457087D01*
X24001729Y9457087D02*
X24011253Y9447564D01*
X24011253Y9447564D02*
X24020777Y9428516D01*
X24020777Y9428516D02*
X24030300Y9390421D01*
X24030300Y9390421D02*
X24030300Y9342802D01*
X24030300Y9342802D02*
X24020777Y9304706D01*
X24020777Y9304706D02*
X24011253Y9285659D01*
X24011253Y9285659D02*
X24001729Y9276135D01*
X24001729Y9276135D02*
X23982681Y9266611D01*
X23982681Y9266611D02*
X23963634Y9266611D01*
X23963634Y9266611D02*
X23944586Y9276135D01*
X23944586Y9276135D02*
X23935062Y9285659D01*
X23935062Y9285659D02*
X23925538Y9304706D01*
X23925538Y9304706D02*
X23916015Y9342802D01*
X23916015Y9342802D02*
X23916015Y9390421D01*
X23916015Y9390421D02*
X23925538Y9428516D01*
X23925538Y9428516D02*
X23935062Y9447564D01*
X23935062Y9447564D02*
X23944586Y9457087D01*
X23944586Y9457087D02*
X23963634Y9466611D01*
X24116015Y9266611D02*
X24116015Y9399945D01*
X24116015Y9380897D02*
X24125538Y9390421D01*
X24125538Y9390421D02*
X24144586Y9399945D01*
X24144586Y9399945D02*
X24173158Y9399945D01*
X24173158Y9399945D02*
X24192205Y9390421D01*
X24192205Y9390421D02*
X24201729Y9371373D01*
X24201729Y9371373D02*
X24201729Y9266611D01*
X24201729Y9371373D02*
X24211253Y9390421D01*
X24211253Y9390421D02*
X24230300Y9399945D01*
X24230300Y9399945D02*
X24258872Y9399945D01*
X24258872Y9399945D02*
X24277919Y9390421D01*
X24277919Y9390421D02*
X24287443Y9371373D01*
X24287443Y9371373D02*
X24287443Y9266611D01*
X24382681Y9266611D02*
X24382681Y9399945D01*
X24382681Y9380897D02*
X24392205Y9390421D01*
X24392205Y9390421D02*
X24411253Y9399945D01*
X24411253Y9399945D02*
X24439824Y9399945D01*
X24439824Y9399945D02*
X24458872Y9390421D01*
X24458872Y9390421D02*
X24468396Y9371373D01*
X24468396Y9371373D02*
X24468396Y9266611D01*
X24468396Y9371373D02*
X24477919Y9390421D01*
X24477919Y9390421D02*
X24496967Y9399945D01*
X24496967Y9399945D02*
X24525538Y9399945D01*
X24525538Y9399945D02*
X24544586Y9390421D01*
X24544586Y9390421D02*
X24554110Y9371373D01*
X24554110Y9371373D02*
X24554110Y9266611D01*
X24944586Y9476135D02*
X24773158Y9218992D01*
X25201729Y9466611D02*
X25220777Y9466611D01*
X25220777Y9466611D02*
X25239824Y9457087D01*
X25239824Y9457087D02*
X25249348Y9447564D01*
X25249348Y9447564D02*
X25258872Y9428516D01*
X25258872Y9428516D02*
X25268396Y9390421D01*
X25268396Y9390421D02*
X25268396Y9342802D01*
X25268396Y9342802D02*
X25258872Y9304706D01*
X25258872Y9304706D02*
X25249348Y9285659D01*
X25249348Y9285659D02*
X25239824Y9276135D01*
X25239824Y9276135D02*
X25220777Y9266611D01*
X25220777Y9266611D02*
X25201729Y9266611D01*
X25201729Y9266611D02*
X25182681Y9276135D01*
X25182681Y9276135D02*
X25173158Y9285659D01*
X25173158Y9285659D02*
X25163634Y9304706D01*
X25163634Y9304706D02*
X25154110Y9342802D01*
X25154110Y9342802D02*
X25154110Y9390421D01*
X25154110Y9390421D02*
X25163634Y9428516D01*
X25163634Y9428516D02*
X25173158Y9447564D01*
X25173158Y9447564D02*
X25182681Y9457087D01*
X25182681Y9457087D02*
X25201729Y9466611D01*
X25354110Y9285659D02*
X25363634Y9276135D01*
X25363634Y9276135D02*
X25354110Y9266611D01*
X25354110Y9266611D02*
X25344586Y9276135D01*
X25344586Y9276135D02*
X25354110Y9285659D01*
X25354110Y9285659D02*
X25354110Y9266611D01*
X25487443Y9466611D02*
X25506491Y9466611D01*
X25506491Y9466611D02*
X25525539Y9457087D01*
X25525539Y9457087D02*
X25535062Y9447564D01*
X25535062Y9447564D02*
X25544586Y9428516D01*
X25544586Y9428516D02*
X25554110Y9390421D01*
X25554110Y9390421D02*
X25554110Y9342802D01*
X25554110Y9342802D02*
X25544586Y9304706D01*
X25544586Y9304706D02*
X25535062Y9285659D01*
X25535062Y9285659D02*
X25525539Y9276135D01*
X25525539Y9276135D02*
X25506491Y9266611D01*
X25506491Y9266611D02*
X25487443Y9266611D01*
X25487443Y9266611D02*
X25468396Y9276135D01*
X25468396Y9276135D02*
X25458872Y9285659D01*
X25458872Y9285659D02*
X25449348Y9304706D01*
X25449348Y9304706D02*
X25439824Y9342802D01*
X25439824Y9342802D02*
X25439824Y9390421D01*
X25439824Y9390421D02*
X25449348Y9428516D01*
X25449348Y9428516D02*
X25458872Y9447564D01*
X25458872Y9447564D02*
X25468396Y9457087D01*
X25468396Y9457087D02*
X25487443Y9466611D01*
X25620777Y9466611D02*
X25744586Y9466611D01*
X25744586Y9466611D02*
X25677920Y9390421D01*
X25677920Y9390421D02*
X25706491Y9390421D01*
X25706491Y9390421D02*
X25725539Y9380897D01*
X25725539Y9380897D02*
X25735062Y9371373D01*
X25735062Y9371373D02*
X25744586Y9352325D01*
X25744586Y9352325D02*
X25744586Y9304706D01*
X25744586Y9304706D02*
X25735062Y9285659D01*
X25735062Y9285659D02*
X25725539Y9276135D01*
X25725539Y9276135D02*
X25706491Y9266611D01*
X25706491Y9266611D02*
X25649348Y9266611D01*
X25649348Y9266611D02*
X25630301Y9276135D01*
X25630301Y9276135D02*
X25620777Y9285659D01*
X25935062Y9266611D02*
X25820777Y9266611D01*
X25877920Y9266611D02*
X25877920Y9466611D01*
X25877920Y9466611D02*
X25858872Y9438040D01*
X25858872Y9438040D02*
X25839824Y9418992D01*
X25839824Y9418992D02*
X25820777Y9409468D01*
X26116015Y9466611D02*
X26020777Y9466611D01*
X26020777Y9466611D02*
X26011253Y9371373D01*
X26011253Y9371373D02*
X26020777Y9380897D01*
X26020777Y9380897D02*
X26039824Y9390421D01*
X26039824Y9390421D02*
X26087443Y9390421D01*
X26087443Y9390421D02*
X26106491Y9380897D01*
X26106491Y9380897D02*
X26116015Y9371373D01*
X26116015Y9371373D02*
X26125539Y9352325D01*
X26125539Y9352325D02*
X26125539Y9304706D01*
X26125539Y9304706D02*
X26116015Y9285659D01*
X26116015Y9285659D02*
X26106491Y9276135D01*
X26106491Y9276135D02*
X26087443Y9266611D01*
X26087443Y9266611D02*
X26039824Y9266611D01*
X26039824Y9266611D02*
X26020777Y9276135D01*
X26020777Y9276135D02*
X26011253Y9285659D01*
X26201729Y9466611D02*
X26201729Y9428516D01*
X26277920Y9466611D02*
X26277920Y9428516D01*
X26573158Y9190421D02*
X26563634Y9199945D01*
X26563634Y9199945D02*
X26544586Y9228516D01*
X26544586Y9228516D02*
X26535063Y9247564D01*
X26535063Y9247564D02*
X26525539Y9276135D01*
X26525539Y9276135D02*
X26516015Y9323754D01*
X26516015Y9323754D02*
X26516015Y9361849D01*
X26516015Y9361849D02*
X26525539Y9409468D01*
X26525539Y9409468D02*
X26535063Y9438040D01*
X26535063Y9438040D02*
X26544586Y9457087D01*
X26544586Y9457087D02*
X26563634Y9485659D01*
X26563634Y9485659D02*
X26573158Y9495183D01*
X26630301Y9466611D02*
X26754110Y9466611D01*
X26754110Y9466611D02*
X26687443Y9390421D01*
X26687443Y9390421D02*
X26716015Y9390421D01*
X26716015Y9390421D02*
X26735063Y9380897D01*
X26735063Y9380897D02*
X26744586Y9371373D01*
X26744586Y9371373D02*
X26754110Y9352325D01*
X26754110Y9352325D02*
X26754110Y9304706D01*
X26754110Y9304706D02*
X26744586Y9285659D01*
X26744586Y9285659D02*
X26735063Y9276135D01*
X26735063Y9276135D02*
X26716015Y9266611D01*
X26716015Y9266611D02*
X26658872Y9266611D01*
X26658872Y9266611D02*
X26639824Y9276135D01*
X26639824Y9276135D02*
X26630301Y9285659D01*
X26830301Y9447564D02*
X26839824Y9457087D01*
X26839824Y9457087D02*
X26858872Y9466611D01*
X26858872Y9466611D02*
X26906491Y9466611D01*
X26906491Y9466611D02*
X26925539Y9457087D01*
X26925539Y9457087D02*
X26935063Y9447564D01*
X26935063Y9447564D02*
X26944586Y9428516D01*
X26944586Y9428516D02*
X26944586Y9409468D01*
X26944586Y9409468D02*
X26935063Y9380897D01*
X26935063Y9380897D02*
X26820777Y9266611D01*
X26820777Y9266611D02*
X26944586Y9266611D01*
X27182682Y9266611D02*
X27182682Y9466611D01*
X27268396Y9266611D02*
X27268396Y9371373D01*
X27268396Y9371373D02*
X27258872Y9390421D01*
X27258872Y9390421D02*
X27239825Y9399945D01*
X27239825Y9399945D02*
X27211253Y9399945D01*
X27211253Y9399945D02*
X27192205Y9390421D01*
X27192205Y9390421D02*
X27182682Y9380897D01*
X27392205Y9266611D02*
X27373158Y9276135D01*
X27373158Y9276135D02*
X27363634Y9285659D01*
X27363634Y9285659D02*
X27354110Y9304706D01*
X27354110Y9304706D02*
X27354110Y9361849D01*
X27354110Y9361849D02*
X27363634Y9380897D01*
X27363634Y9380897D02*
X27373158Y9390421D01*
X27373158Y9390421D02*
X27392205Y9399945D01*
X27392205Y9399945D02*
X27420777Y9399945D01*
X27420777Y9399945D02*
X27439825Y9390421D01*
X27439825Y9390421D02*
X27449348Y9380897D01*
X27449348Y9380897D02*
X27458872Y9361849D01*
X27458872Y9361849D02*
X27458872Y9304706D01*
X27458872Y9304706D02*
X27449348Y9285659D01*
X27449348Y9285659D02*
X27439825Y9276135D01*
X27439825Y9276135D02*
X27420777Y9266611D01*
X27420777Y9266611D02*
X27392205Y9266611D01*
X27573158Y9266611D02*
X27554110Y9276135D01*
X27554110Y9276135D02*
X27544586Y9295183D01*
X27544586Y9295183D02*
X27544586Y9466611D01*
X27725539Y9276135D02*
X27706491Y9266611D01*
X27706491Y9266611D02*
X27668396Y9266611D01*
X27668396Y9266611D02*
X27649348Y9276135D01*
X27649348Y9276135D02*
X27639825Y9295183D01*
X27639825Y9295183D02*
X27639825Y9371373D01*
X27639825Y9371373D02*
X27649348Y9390421D01*
X27649348Y9390421D02*
X27668396Y9399945D01*
X27668396Y9399945D02*
X27706491Y9399945D01*
X27706491Y9399945D02*
X27725539Y9390421D01*
X27725539Y9390421D02*
X27735063Y9371373D01*
X27735063Y9371373D02*
X27735063Y9352325D01*
X27735063Y9352325D02*
X27639825Y9333278D01*
X27811253Y9276135D02*
X27830301Y9266611D01*
X27830301Y9266611D02*
X27868396Y9266611D01*
X27868396Y9266611D02*
X27887444Y9276135D01*
X27887444Y9276135D02*
X27896967Y9295183D01*
X27896967Y9295183D02*
X27896967Y9304706D01*
X27896967Y9304706D02*
X27887444Y9323754D01*
X27887444Y9323754D02*
X27868396Y9333278D01*
X27868396Y9333278D02*
X27839825Y9333278D01*
X27839825Y9333278D02*
X27820777Y9342802D01*
X27820777Y9342802D02*
X27811253Y9361849D01*
X27811253Y9361849D02*
X27811253Y9371373D01*
X27811253Y9371373D02*
X27820777Y9390421D01*
X27820777Y9390421D02*
X27839825Y9399945D01*
X27839825Y9399945D02*
X27868396Y9399945D01*
X27868396Y9399945D02*
X27887444Y9390421D01*
X27963634Y9190421D02*
X27973158Y9199945D01*
X27973158Y9199945D02*
X27992206Y9228516D01*
X27992206Y9228516D02*
X28001729Y9247564D01*
X28001729Y9247564D02*
X28011253Y9276135D01*
X28011253Y9276135D02*
X28020777Y9323754D01*
X28020777Y9323754D02*
X28020777Y9361849D01*
X28020777Y9361849D02*
X28011253Y9409468D01*
X28011253Y9409468D02*
X28001729Y9438040D01*
X28001729Y9438040D02*
X27992206Y9457087D01*
X27992206Y9457087D02*
X27973158Y9485659D01*
X27973158Y9485659D02*
X27963634Y9495183D01*
D13*
X22998095Y9094095D02*
G75*
G02*
X22889095Y9094095I-54500J0D01*
G01*
X22889095Y9094095D02*
G75*
G02*
X22998095Y9094095I54500J0D01*
G01*
D11*
X23363634Y9002611D02*
X23249348Y9002611D01*
X23306491Y9002611D02*
X23306491Y9202611D01*
X23306491Y9202611D02*
X23287443Y9174040D01*
X23287443Y9174040D02*
X23268396Y9154992D01*
X23268396Y9154992D02*
X23249348Y9145468D01*
X23449348Y9021659D02*
X23458872Y9012135D01*
X23458872Y9012135D02*
X23449348Y9002611D01*
X23449348Y9002611D02*
X23439824Y9012135D01*
X23439824Y9012135D02*
X23449348Y9021659D01*
X23449348Y9021659D02*
X23449348Y9002611D01*
X23582681Y9202611D02*
X23601729Y9202611D01*
X23601729Y9202611D02*
X23620777Y9193087D01*
X23620777Y9193087D02*
X23630300Y9183564D01*
X23630300Y9183564D02*
X23639824Y9164516D01*
X23639824Y9164516D02*
X23649348Y9126421D01*
X23649348Y9126421D02*
X23649348Y9078802D01*
X23649348Y9078802D02*
X23639824Y9040706D01*
X23639824Y9040706D02*
X23630300Y9021659D01*
X23630300Y9021659D02*
X23620777Y9012135D01*
X23620777Y9012135D02*
X23601729Y9002611D01*
X23601729Y9002611D02*
X23582681Y9002611D01*
X23582681Y9002611D02*
X23563634Y9012135D01*
X23563634Y9012135D02*
X23554110Y9021659D01*
X23554110Y9021659D02*
X23544586Y9040706D01*
X23544586Y9040706D02*
X23535062Y9078802D01*
X23535062Y9078802D02*
X23535062Y9126421D01*
X23535062Y9126421D02*
X23544586Y9164516D01*
X23544586Y9164516D02*
X23554110Y9183564D01*
X23554110Y9183564D02*
X23563634Y9193087D01*
X23563634Y9193087D02*
X23582681Y9202611D01*
X23744586Y9002611D02*
X23782681Y9002611D01*
X23782681Y9002611D02*
X23801729Y9012135D01*
X23801729Y9012135D02*
X23811253Y9021659D01*
X23811253Y9021659D02*
X23830300Y9050230D01*
X23830300Y9050230D02*
X23839824Y9088325D01*
X23839824Y9088325D02*
X23839824Y9164516D01*
X23839824Y9164516D02*
X23830300Y9183564D01*
X23830300Y9183564D02*
X23820777Y9193087D01*
X23820777Y9193087D02*
X23801729Y9202611D01*
X23801729Y9202611D02*
X23763634Y9202611D01*
X23763634Y9202611D02*
X23744586Y9193087D01*
X23744586Y9193087D02*
X23735062Y9183564D01*
X23735062Y9183564D02*
X23725538Y9164516D01*
X23725538Y9164516D02*
X23725538Y9116897D01*
X23725538Y9116897D02*
X23735062Y9097849D01*
X23735062Y9097849D02*
X23744586Y9088325D01*
X23744586Y9088325D02*
X23763634Y9078802D01*
X23763634Y9078802D02*
X23801729Y9078802D01*
X23801729Y9078802D02*
X23820777Y9088325D01*
X23820777Y9088325D02*
X23830300Y9097849D01*
X23830300Y9097849D02*
X23839824Y9116897D01*
X23963634Y9202611D02*
X23982681Y9202611D01*
X23982681Y9202611D02*
X24001729Y9193087D01*
X24001729Y9193087D02*
X24011253Y9183564D01*
X24011253Y9183564D02*
X24020777Y9164516D01*
X24020777Y9164516D02*
X24030300Y9126421D01*
X24030300Y9126421D02*
X24030300Y9078802D01*
X24030300Y9078802D02*
X24020777Y9040706D01*
X24020777Y9040706D02*
X24011253Y9021659D01*
X24011253Y9021659D02*
X24001729Y9012135D01*
X24001729Y9012135D02*
X23982681Y9002611D01*
X23982681Y9002611D02*
X23963634Y9002611D01*
X23963634Y9002611D02*
X23944586Y9012135D01*
X23944586Y9012135D02*
X23935062Y9021659D01*
X23935062Y9021659D02*
X23925538Y9040706D01*
X23925538Y9040706D02*
X23916015Y9078802D01*
X23916015Y9078802D02*
X23916015Y9126421D01*
X23916015Y9126421D02*
X23925538Y9164516D01*
X23925538Y9164516D02*
X23935062Y9183564D01*
X23935062Y9183564D02*
X23944586Y9193087D01*
X23944586Y9193087D02*
X23963634Y9202611D01*
X24116015Y9002611D02*
X24116015Y9135945D01*
X24116015Y9116897D02*
X24125538Y9126421D01*
X24125538Y9126421D02*
X24144586Y9135945D01*
X24144586Y9135945D02*
X24173158Y9135945D01*
X24173158Y9135945D02*
X24192205Y9126421D01*
X24192205Y9126421D02*
X24201729Y9107373D01*
X24201729Y9107373D02*
X24201729Y9002611D01*
X24201729Y9107373D02*
X24211253Y9126421D01*
X24211253Y9126421D02*
X24230300Y9135945D01*
X24230300Y9135945D02*
X24258872Y9135945D01*
X24258872Y9135945D02*
X24277919Y9126421D01*
X24277919Y9126421D02*
X24287443Y9107373D01*
X24287443Y9107373D02*
X24287443Y9002611D01*
X24382681Y9002611D02*
X24382681Y9135945D01*
X24382681Y9116897D02*
X24392205Y9126421D01*
X24392205Y9126421D02*
X24411253Y9135945D01*
X24411253Y9135945D02*
X24439824Y9135945D01*
X24439824Y9135945D02*
X24458872Y9126421D01*
X24458872Y9126421D02*
X24468396Y9107373D01*
X24468396Y9107373D02*
X24468396Y9002611D01*
X24468396Y9107373D02*
X24477919Y9126421D01*
X24477919Y9126421D02*
X24496967Y9135945D01*
X24496967Y9135945D02*
X24525538Y9135945D01*
X24525538Y9135945D02*
X24544586Y9126421D01*
X24544586Y9126421D02*
X24554110Y9107373D01*
X24554110Y9107373D02*
X24554110Y9002611D01*
X24944586Y9212135D02*
X24773158Y8954992D01*
X25201729Y9202611D02*
X25220777Y9202611D01*
X25220777Y9202611D02*
X25239824Y9193087D01*
X25239824Y9193087D02*
X25249348Y9183564D01*
X25249348Y9183564D02*
X25258872Y9164516D01*
X25258872Y9164516D02*
X25268396Y9126421D01*
X25268396Y9126421D02*
X25268396Y9078802D01*
X25268396Y9078802D02*
X25258872Y9040706D01*
X25258872Y9040706D02*
X25249348Y9021659D01*
X25249348Y9021659D02*
X25239824Y9012135D01*
X25239824Y9012135D02*
X25220777Y9002611D01*
X25220777Y9002611D02*
X25201729Y9002611D01*
X25201729Y9002611D02*
X25182681Y9012135D01*
X25182681Y9012135D02*
X25173158Y9021659D01*
X25173158Y9021659D02*
X25163634Y9040706D01*
X25163634Y9040706D02*
X25154110Y9078802D01*
X25154110Y9078802D02*
X25154110Y9126421D01*
X25154110Y9126421D02*
X25163634Y9164516D01*
X25163634Y9164516D02*
X25173158Y9183564D01*
X25173158Y9183564D02*
X25182681Y9193087D01*
X25182681Y9193087D02*
X25201729Y9202611D01*
X25354110Y9021659D02*
X25363634Y9012135D01*
X25363634Y9012135D02*
X25354110Y9002611D01*
X25354110Y9002611D02*
X25344586Y9012135D01*
X25344586Y9012135D02*
X25354110Y9021659D01*
X25354110Y9021659D02*
X25354110Y9002611D01*
X25487443Y9202611D02*
X25506491Y9202611D01*
X25506491Y9202611D02*
X25525539Y9193087D01*
X25525539Y9193087D02*
X25535062Y9183564D01*
X25535062Y9183564D02*
X25544586Y9164516D01*
X25544586Y9164516D02*
X25554110Y9126421D01*
X25554110Y9126421D02*
X25554110Y9078802D01*
X25554110Y9078802D02*
X25544586Y9040706D01*
X25544586Y9040706D02*
X25535062Y9021659D01*
X25535062Y9021659D02*
X25525539Y9012135D01*
X25525539Y9012135D02*
X25506491Y9002611D01*
X25506491Y9002611D02*
X25487443Y9002611D01*
X25487443Y9002611D02*
X25468396Y9012135D01*
X25468396Y9012135D02*
X25458872Y9021659D01*
X25458872Y9021659D02*
X25449348Y9040706D01*
X25449348Y9040706D02*
X25439824Y9078802D01*
X25439824Y9078802D02*
X25439824Y9126421D01*
X25439824Y9126421D02*
X25449348Y9164516D01*
X25449348Y9164516D02*
X25458872Y9183564D01*
X25458872Y9183564D02*
X25468396Y9193087D01*
X25468396Y9193087D02*
X25487443Y9202611D01*
X25725539Y9135945D02*
X25725539Y9002611D01*
X25677920Y9212135D02*
X25630301Y9069278D01*
X25630301Y9069278D02*
X25754110Y9069278D01*
X25820777Y9183564D02*
X25830301Y9193087D01*
X25830301Y9193087D02*
X25849348Y9202611D01*
X25849348Y9202611D02*
X25896967Y9202611D01*
X25896967Y9202611D02*
X25916015Y9193087D01*
X25916015Y9193087D02*
X25925539Y9183564D01*
X25925539Y9183564D02*
X25935062Y9164516D01*
X25935062Y9164516D02*
X25935062Y9145468D01*
X25935062Y9145468D02*
X25925539Y9116897D01*
X25925539Y9116897D02*
X25811253Y9002611D01*
X25811253Y9002611D02*
X25935062Y9002611D01*
X26030301Y9002611D02*
X26068396Y9002611D01*
X26068396Y9002611D02*
X26087443Y9012135D01*
X26087443Y9012135D02*
X26096967Y9021659D01*
X26096967Y9021659D02*
X26116015Y9050230D01*
X26116015Y9050230D02*
X26125539Y9088325D01*
X26125539Y9088325D02*
X26125539Y9164516D01*
X26125539Y9164516D02*
X26116015Y9183564D01*
X26116015Y9183564D02*
X26106491Y9193087D01*
X26106491Y9193087D02*
X26087443Y9202611D01*
X26087443Y9202611D02*
X26049348Y9202611D01*
X26049348Y9202611D02*
X26030301Y9193087D01*
X26030301Y9193087D02*
X26020777Y9183564D01*
X26020777Y9183564D02*
X26011253Y9164516D01*
X26011253Y9164516D02*
X26011253Y9116897D01*
X26011253Y9116897D02*
X26020777Y9097849D01*
X26020777Y9097849D02*
X26030301Y9088325D01*
X26030301Y9088325D02*
X26049348Y9078802D01*
X26049348Y9078802D02*
X26087443Y9078802D01*
X26087443Y9078802D02*
X26106491Y9088325D01*
X26106491Y9088325D02*
X26116015Y9097849D01*
X26116015Y9097849D02*
X26125539Y9116897D01*
X26201729Y9202611D02*
X26201729Y9164516D01*
X26277920Y9202611D02*
X26277920Y9164516D01*
X26573158Y8926421D02*
X26563634Y8935945D01*
X26563634Y8935945D02*
X26544586Y8964516D01*
X26544586Y8964516D02*
X26535063Y8983564D01*
X26535063Y8983564D02*
X26525539Y9012135D01*
X26525539Y9012135D02*
X26516015Y9059754D01*
X26516015Y9059754D02*
X26516015Y9097849D01*
X26516015Y9097849D02*
X26525539Y9145468D01*
X26525539Y9145468D02*
X26535063Y9174040D01*
X26535063Y9174040D02*
X26544586Y9193087D01*
X26544586Y9193087D02*
X26563634Y9221659D01*
X26563634Y9221659D02*
X26573158Y9231183D01*
X26754110Y9002611D02*
X26639824Y9002611D01*
X26696967Y9002611D02*
X26696967Y9202611D01*
X26696967Y9202611D02*
X26677920Y9174040D01*
X26677920Y9174040D02*
X26658872Y9154992D01*
X26658872Y9154992D02*
X26639824Y9145468D01*
X26935063Y9202611D02*
X26839824Y9202611D01*
X26839824Y9202611D02*
X26830301Y9107373D01*
X26830301Y9107373D02*
X26839824Y9116897D01*
X26839824Y9116897D02*
X26858872Y9126421D01*
X26858872Y9126421D02*
X26906491Y9126421D01*
X26906491Y9126421D02*
X26925539Y9116897D01*
X26925539Y9116897D02*
X26935063Y9107373D01*
X26935063Y9107373D02*
X26944586Y9088325D01*
X26944586Y9088325D02*
X26944586Y9040706D01*
X26944586Y9040706D02*
X26935063Y9021659D01*
X26935063Y9021659D02*
X26925539Y9012135D01*
X26925539Y9012135D02*
X26906491Y9002611D01*
X26906491Y9002611D02*
X26858872Y9002611D01*
X26858872Y9002611D02*
X26839824Y9012135D01*
X26839824Y9012135D02*
X26830301Y9021659D01*
X27116015Y9202611D02*
X27077920Y9202611D01*
X27077920Y9202611D02*
X27058872Y9193087D01*
X27058872Y9193087D02*
X27049348Y9183564D01*
X27049348Y9183564D02*
X27030301Y9154992D01*
X27030301Y9154992D02*
X27020777Y9116897D01*
X27020777Y9116897D02*
X27020777Y9040706D01*
X27020777Y9040706D02*
X27030301Y9021659D01*
X27030301Y9021659D02*
X27039824Y9012135D01*
X27039824Y9012135D02*
X27058872Y9002611D01*
X27058872Y9002611D02*
X27096967Y9002611D01*
X27096967Y9002611D02*
X27116015Y9012135D01*
X27116015Y9012135D02*
X27125539Y9021659D01*
X27125539Y9021659D02*
X27135063Y9040706D01*
X27135063Y9040706D02*
X27135063Y9088325D01*
X27135063Y9088325D02*
X27125539Y9107373D01*
X27125539Y9107373D02*
X27116015Y9116897D01*
X27116015Y9116897D02*
X27096967Y9126421D01*
X27096967Y9126421D02*
X27058872Y9126421D01*
X27058872Y9126421D02*
X27039824Y9116897D01*
X27039824Y9116897D02*
X27030301Y9107373D01*
X27030301Y9107373D02*
X27020777Y9088325D01*
X27373158Y9002611D02*
X27373158Y9202611D01*
X27458872Y9002611D02*
X27458872Y9107373D01*
X27458872Y9107373D02*
X27449348Y9126421D01*
X27449348Y9126421D02*
X27430301Y9135945D01*
X27430301Y9135945D02*
X27401729Y9135945D01*
X27401729Y9135945D02*
X27382682Y9126421D01*
X27382682Y9126421D02*
X27373158Y9116897D01*
X27582682Y9002611D02*
X27563634Y9012135D01*
X27563634Y9012135D02*
X27554110Y9021659D01*
X27554110Y9021659D02*
X27544586Y9040706D01*
X27544586Y9040706D02*
X27544586Y9097849D01*
X27544586Y9097849D02*
X27554110Y9116897D01*
X27554110Y9116897D02*
X27563634Y9126421D01*
X27563634Y9126421D02*
X27582682Y9135945D01*
X27582682Y9135945D02*
X27611253Y9135945D01*
X27611253Y9135945D02*
X27630301Y9126421D01*
X27630301Y9126421D02*
X27639825Y9116897D01*
X27639825Y9116897D02*
X27649348Y9097849D01*
X27649348Y9097849D02*
X27649348Y9040706D01*
X27649348Y9040706D02*
X27639825Y9021659D01*
X27639825Y9021659D02*
X27630301Y9012135D01*
X27630301Y9012135D02*
X27611253Y9002611D01*
X27611253Y9002611D02*
X27582682Y9002611D01*
X27763634Y9002611D02*
X27744586Y9012135D01*
X27744586Y9012135D02*
X27735063Y9031183D01*
X27735063Y9031183D02*
X27735063Y9202611D01*
X27916015Y9012135D02*
X27896967Y9002611D01*
X27896967Y9002611D02*
X27858872Y9002611D01*
X27858872Y9002611D02*
X27839825Y9012135D01*
X27839825Y9012135D02*
X27830301Y9031183D01*
X27830301Y9031183D02*
X27830301Y9107373D01*
X27830301Y9107373D02*
X27839825Y9126421D01*
X27839825Y9126421D02*
X27858872Y9135945D01*
X27858872Y9135945D02*
X27896967Y9135945D01*
X27896967Y9135945D02*
X27916015Y9126421D01*
X27916015Y9126421D02*
X27925539Y9107373D01*
X27925539Y9107373D02*
X27925539Y9088325D01*
X27925539Y9088325D02*
X27830301Y9069278D01*
X28001729Y9012135D02*
X28020777Y9002611D01*
X28020777Y9002611D02*
X28058872Y9002611D01*
X28058872Y9002611D02*
X28077920Y9012135D01*
X28077920Y9012135D02*
X28087444Y9031183D01*
X28087444Y9031183D02*
X28087444Y9040706D01*
X28087444Y9040706D02*
X28077920Y9059754D01*
X28077920Y9059754D02*
X28058872Y9069278D01*
X28058872Y9069278D02*
X28030301Y9069278D01*
X28030301Y9069278D02*
X28011253Y9078802D01*
X28011253Y9078802D02*
X28001729Y9097849D01*
X28001729Y9097849D02*
X28001729Y9107373D01*
X28001729Y9107373D02*
X28011253Y9126421D01*
X28011253Y9126421D02*
X28030301Y9135945D01*
X28030301Y9135945D02*
X28058872Y9135945D01*
X28058872Y9135945D02*
X28077920Y9126421D01*
X28154110Y8926421D02*
X28163634Y8935945D01*
X28163634Y8935945D02*
X28182682Y8964516D01*
X28182682Y8964516D02*
X28192206Y8983564D01*
X28192206Y8983564D02*
X28201729Y9012135D01*
X28201729Y9012135D02*
X28211253Y9059754D01*
X28211253Y9059754D02*
X28211253Y9097849D01*
X28211253Y9097849D02*
X28201729Y9145468D01*
X28201729Y9145468D02*
X28192206Y9174040D01*
X28192206Y9174040D02*
X28182682Y9193087D01*
X28182682Y9193087D02*
X28163634Y9221659D01*
X28163634Y9221659D02*
X28154110Y9231183D01*
D14*
X22913095Y8915095D02*
X22913095Y8745095D01*
X22828095Y8830095D02*
X22998095Y8830095D01*
D11*
X23363634Y8738611D02*
X23249348Y8738611D01*
X23306491Y8738611D02*
X23306491Y8938611D01*
X23306491Y8938611D02*
X23287443Y8910040D01*
X23287443Y8910040D02*
X23268396Y8890992D01*
X23268396Y8890992D02*
X23249348Y8881468D01*
X23449348Y8757659D02*
X23458872Y8748135D01*
X23458872Y8748135D02*
X23449348Y8738611D01*
X23449348Y8738611D02*
X23439824Y8748135D01*
X23439824Y8748135D02*
X23449348Y8757659D01*
X23449348Y8757659D02*
X23449348Y8738611D01*
X23525538Y8938611D02*
X23658872Y8938611D01*
X23658872Y8938611D02*
X23573157Y8738611D01*
X23773157Y8938611D02*
X23792205Y8938611D01*
X23792205Y8938611D02*
X23811253Y8929087D01*
X23811253Y8929087D02*
X23820777Y8919564D01*
X23820777Y8919564D02*
X23830300Y8900516D01*
X23830300Y8900516D02*
X23839824Y8862421D01*
X23839824Y8862421D02*
X23839824Y8814802D01*
X23839824Y8814802D02*
X23830300Y8776706D01*
X23830300Y8776706D02*
X23820777Y8757659D01*
X23820777Y8757659D02*
X23811253Y8748135D01*
X23811253Y8748135D02*
X23792205Y8738611D01*
X23792205Y8738611D02*
X23773157Y8738611D01*
X23773157Y8738611D02*
X23754110Y8748135D01*
X23754110Y8748135D02*
X23744586Y8757659D01*
X23744586Y8757659D02*
X23735062Y8776706D01*
X23735062Y8776706D02*
X23725538Y8814802D01*
X23725538Y8814802D02*
X23725538Y8862421D01*
X23725538Y8862421D02*
X23735062Y8900516D01*
X23735062Y8900516D02*
X23744586Y8919564D01*
X23744586Y8919564D02*
X23754110Y8929087D01*
X23754110Y8929087D02*
X23773157Y8938611D01*
X23963634Y8938611D02*
X23982681Y8938611D01*
X23982681Y8938611D02*
X24001729Y8929087D01*
X24001729Y8929087D02*
X24011253Y8919564D01*
X24011253Y8919564D02*
X24020777Y8900516D01*
X24020777Y8900516D02*
X24030300Y8862421D01*
X24030300Y8862421D02*
X24030300Y8814802D01*
X24030300Y8814802D02*
X24020777Y8776706D01*
X24020777Y8776706D02*
X24011253Y8757659D01*
X24011253Y8757659D02*
X24001729Y8748135D01*
X24001729Y8748135D02*
X23982681Y8738611D01*
X23982681Y8738611D02*
X23963634Y8738611D01*
X23963634Y8738611D02*
X23944586Y8748135D01*
X23944586Y8748135D02*
X23935062Y8757659D01*
X23935062Y8757659D02*
X23925538Y8776706D01*
X23925538Y8776706D02*
X23916015Y8814802D01*
X23916015Y8814802D02*
X23916015Y8862421D01*
X23916015Y8862421D02*
X23925538Y8900516D01*
X23925538Y8900516D02*
X23935062Y8919564D01*
X23935062Y8919564D02*
X23944586Y8929087D01*
X23944586Y8929087D02*
X23963634Y8938611D01*
X24116015Y8738611D02*
X24116015Y8871945D01*
X24116015Y8852897D02*
X24125538Y8862421D01*
X24125538Y8862421D02*
X24144586Y8871945D01*
X24144586Y8871945D02*
X24173158Y8871945D01*
X24173158Y8871945D02*
X24192205Y8862421D01*
X24192205Y8862421D02*
X24201729Y8843373D01*
X24201729Y8843373D02*
X24201729Y8738611D01*
X24201729Y8843373D02*
X24211253Y8862421D01*
X24211253Y8862421D02*
X24230300Y8871945D01*
X24230300Y8871945D02*
X24258872Y8871945D01*
X24258872Y8871945D02*
X24277919Y8862421D01*
X24277919Y8862421D02*
X24287443Y8843373D01*
X24287443Y8843373D02*
X24287443Y8738611D01*
X24382681Y8738611D02*
X24382681Y8871945D01*
X24382681Y8852897D02*
X24392205Y8862421D01*
X24392205Y8862421D02*
X24411253Y8871945D01*
X24411253Y8871945D02*
X24439824Y8871945D01*
X24439824Y8871945D02*
X24458872Y8862421D01*
X24458872Y8862421D02*
X24468396Y8843373D01*
X24468396Y8843373D02*
X24468396Y8738611D01*
X24468396Y8843373D02*
X24477919Y8862421D01*
X24477919Y8862421D02*
X24496967Y8871945D01*
X24496967Y8871945D02*
X24525538Y8871945D01*
X24525538Y8871945D02*
X24544586Y8862421D01*
X24544586Y8862421D02*
X24554110Y8843373D01*
X24554110Y8843373D02*
X24554110Y8738611D01*
X24944586Y8948135D02*
X24773158Y8690992D01*
X25201729Y8938611D02*
X25220777Y8938611D01*
X25220777Y8938611D02*
X25239824Y8929087D01*
X25239824Y8929087D02*
X25249348Y8919564D01*
X25249348Y8919564D02*
X25258872Y8900516D01*
X25258872Y8900516D02*
X25268396Y8862421D01*
X25268396Y8862421D02*
X25268396Y8814802D01*
X25268396Y8814802D02*
X25258872Y8776706D01*
X25258872Y8776706D02*
X25249348Y8757659D01*
X25249348Y8757659D02*
X25239824Y8748135D01*
X25239824Y8748135D02*
X25220777Y8738611D01*
X25220777Y8738611D02*
X25201729Y8738611D01*
X25201729Y8738611D02*
X25182681Y8748135D01*
X25182681Y8748135D02*
X25173158Y8757659D01*
X25173158Y8757659D02*
X25163634Y8776706D01*
X25163634Y8776706D02*
X25154110Y8814802D01*
X25154110Y8814802D02*
X25154110Y8862421D01*
X25154110Y8862421D02*
X25163634Y8900516D01*
X25163634Y8900516D02*
X25173158Y8919564D01*
X25173158Y8919564D02*
X25182681Y8929087D01*
X25182681Y8929087D02*
X25201729Y8938611D01*
X25354110Y8757659D02*
X25363634Y8748135D01*
X25363634Y8748135D02*
X25354110Y8738611D01*
X25354110Y8738611D02*
X25344586Y8748135D01*
X25344586Y8748135D02*
X25354110Y8757659D01*
X25354110Y8757659D02*
X25354110Y8738611D01*
X25487443Y8938611D02*
X25506491Y8938611D01*
X25506491Y8938611D02*
X25525539Y8929087D01*
X25525539Y8929087D02*
X25535062Y8919564D01*
X25535062Y8919564D02*
X25544586Y8900516D01*
X25544586Y8900516D02*
X25554110Y8862421D01*
X25554110Y8862421D02*
X25554110Y8814802D01*
X25554110Y8814802D02*
X25544586Y8776706D01*
X25544586Y8776706D02*
X25535062Y8757659D01*
X25535062Y8757659D02*
X25525539Y8748135D01*
X25525539Y8748135D02*
X25506491Y8738611D01*
X25506491Y8738611D02*
X25487443Y8738611D01*
X25487443Y8738611D02*
X25468396Y8748135D01*
X25468396Y8748135D02*
X25458872Y8757659D01*
X25458872Y8757659D02*
X25449348Y8776706D01*
X25449348Y8776706D02*
X25439824Y8814802D01*
X25439824Y8814802D02*
X25439824Y8862421D01*
X25439824Y8862421D02*
X25449348Y8900516D01*
X25449348Y8900516D02*
X25458872Y8919564D01*
X25458872Y8919564D02*
X25468396Y8929087D01*
X25468396Y8929087D02*
X25487443Y8938611D01*
X25725539Y8938611D02*
X25687443Y8938611D01*
X25687443Y8938611D02*
X25668396Y8929087D01*
X25668396Y8929087D02*
X25658872Y8919564D01*
X25658872Y8919564D02*
X25639824Y8890992D01*
X25639824Y8890992D02*
X25630301Y8852897D01*
X25630301Y8852897D02*
X25630301Y8776706D01*
X25630301Y8776706D02*
X25639824Y8757659D01*
X25639824Y8757659D02*
X25649348Y8748135D01*
X25649348Y8748135D02*
X25668396Y8738611D01*
X25668396Y8738611D02*
X25706491Y8738611D01*
X25706491Y8738611D02*
X25725539Y8748135D01*
X25725539Y8748135D02*
X25735062Y8757659D01*
X25735062Y8757659D02*
X25744586Y8776706D01*
X25744586Y8776706D02*
X25744586Y8824325D01*
X25744586Y8824325D02*
X25735062Y8843373D01*
X25735062Y8843373D02*
X25725539Y8852897D01*
X25725539Y8852897D02*
X25706491Y8862421D01*
X25706491Y8862421D02*
X25668396Y8862421D01*
X25668396Y8862421D02*
X25649348Y8852897D01*
X25649348Y8852897D02*
X25639824Y8843373D01*
X25639824Y8843373D02*
X25630301Y8824325D01*
X25916015Y8938611D02*
X25877920Y8938611D01*
X25877920Y8938611D02*
X25858872Y8929087D01*
X25858872Y8929087D02*
X25849348Y8919564D01*
X25849348Y8919564D02*
X25830301Y8890992D01*
X25830301Y8890992D02*
X25820777Y8852897D01*
X25820777Y8852897D02*
X25820777Y8776706D01*
X25820777Y8776706D02*
X25830301Y8757659D01*
X25830301Y8757659D02*
X25839824Y8748135D01*
X25839824Y8748135D02*
X25858872Y8738611D01*
X25858872Y8738611D02*
X25896967Y8738611D01*
X25896967Y8738611D02*
X25916015Y8748135D01*
X25916015Y8748135D02*
X25925539Y8757659D01*
X25925539Y8757659D02*
X25935062Y8776706D01*
X25935062Y8776706D02*
X25935062Y8824325D01*
X25935062Y8824325D02*
X25925539Y8843373D01*
X25925539Y8843373D02*
X25916015Y8852897D01*
X25916015Y8852897D02*
X25896967Y8862421D01*
X25896967Y8862421D02*
X25858872Y8862421D01*
X25858872Y8862421D02*
X25839824Y8852897D01*
X25839824Y8852897D02*
X25830301Y8843373D01*
X25830301Y8843373D02*
X25820777Y8824325D01*
X26030301Y8738611D02*
X26068396Y8738611D01*
X26068396Y8738611D02*
X26087443Y8748135D01*
X26087443Y8748135D02*
X26096967Y8757659D01*
X26096967Y8757659D02*
X26116015Y8786230D01*
X26116015Y8786230D02*
X26125539Y8824325D01*
X26125539Y8824325D02*
X26125539Y8900516D01*
X26125539Y8900516D02*
X26116015Y8919564D01*
X26116015Y8919564D02*
X26106491Y8929087D01*
X26106491Y8929087D02*
X26087443Y8938611D01*
X26087443Y8938611D02*
X26049348Y8938611D01*
X26049348Y8938611D02*
X26030301Y8929087D01*
X26030301Y8929087D02*
X26020777Y8919564D01*
X26020777Y8919564D02*
X26011253Y8900516D01*
X26011253Y8900516D02*
X26011253Y8852897D01*
X26011253Y8852897D02*
X26020777Y8833849D01*
X26020777Y8833849D02*
X26030301Y8824325D01*
X26030301Y8824325D02*
X26049348Y8814802D01*
X26049348Y8814802D02*
X26087443Y8814802D01*
X26087443Y8814802D02*
X26106491Y8824325D01*
X26106491Y8824325D02*
X26116015Y8833849D01*
X26116015Y8833849D02*
X26125539Y8852897D01*
X26201729Y8938611D02*
X26201729Y8900516D01*
X26277920Y8938611D02*
X26277920Y8900516D01*
X26573158Y8662421D02*
X26563634Y8671945D01*
X26563634Y8671945D02*
X26544586Y8700516D01*
X26544586Y8700516D02*
X26535063Y8719564D01*
X26535063Y8719564D02*
X26525539Y8748135D01*
X26525539Y8748135D02*
X26516015Y8795754D01*
X26516015Y8795754D02*
X26516015Y8833849D01*
X26516015Y8833849D02*
X26525539Y8881468D01*
X26525539Y8881468D02*
X26535063Y8910040D01*
X26535063Y8910040D02*
X26544586Y8929087D01*
X26544586Y8929087D02*
X26563634Y8957659D01*
X26563634Y8957659D02*
X26573158Y8967183D01*
X26735063Y8871945D02*
X26735063Y8738611D01*
X26687443Y8948135D02*
X26639824Y8805278D01*
X26639824Y8805278D02*
X26763634Y8805278D01*
X26992205Y8738611D02*
X26992205Y8938611D01*
X27077920Y8738611D02*
X27077920Y8843373D01*
X27077920Y8843373D02*
X27068396Y8862421D01*
X27068396Y8862421D02*
X27049348Y8871945D01*
X27049348Y8871945D02*
X27020777Y8871945D01*
X27020777Y8871945D02*
X27001729Y8862421D01*
X27001729Y8862421D02*
X26992205Y8852897D01*
X27201729Y8738611D02*
X27182682Y8748135D01*
X27182682Y8748135D02*
X27173158Y8757659D01*
X27173158Y8757659D02*
X27163634Y8776706D01*
X27163634Y8776706D02*
X27163634Y8833849D01*
X27163634Y8833849D02*
X27173158Y8852897D01*
X27173158Y8852897D02*
X27182682Y8862421D01*
X27182682Y8862421D02*
X27201729Y8871945D01*
X27201729Y8871945D02*
X27230301Y8871945D01*
X27230301Y8871945D02*
X27249348Y8862421D01*
X27249348Y8862421D02*
X27258872Y8852897D01*
X27258872Y8852897D02*
X27268396Y8833849D01*
X27268396Y8833849D02*
X27268396Y8776706D01*
X27268396Y8776706D02*
X27258872Y8757659D01*
X27258872Y8757659D02*
X27249348Y8748135D01*
X27249348Y8748135D02*
X27230301Y8738611D01*
X27230301Y8738611D02*
X27201729Y8738611D01*
X27382682Y8738611D02*
X27363634Y8748135D01*
X27363634Y8748135D02*
X27354110Y8767183D01*
X27354110Y8767183D02*
X27354110Y8938611D01*
X27535063Y8748135D02*
X27516015Y8738611D01*
X27516015Y8738611D02*
X27477920Y8738611D01*
X27477920Y8738611D02*
X27458872Y8748135D01*
X27458872Y8748135D02*
X27449348Y8767183D01*
X27449348Y8767183D02*
X27449348Y8843373D01*
X27449348Y8843373D02*
X27458872Y8862421D01*
X27458872Y8862421D02*
X27477920Y8871945D01*
X27477920Y8871945D02*
X27516015Y8871945D01*
X27516015Y8871945D02*
X27535063Y8862421D01*
X27535063Y8862421D02*
X27544586Y8843373D01*
X27544586Y8843373D02*
X27544586Y8824325D01*
X27544586Y8824325D02*
X27449348Y8805278D01*
X27620777Y8748135D02*
X27639825Y8738611D01*
X27639825Y8738611D02*
X27677920Y8738611D01*
X27677920Y8738611D02*
X27696967Y8748135D01*
X27696967Y8748135D02*
X27706491Y8767183D01*
X27706491Y8767183D02*
X27706491Y8776706D01*
X27706491Y8776706D02*
X27696967Y8795754D01*
X27696967Y8795754D02*
X27677920Y8805278D01*
X27677920Y8805278D02*
X27649348Y8805278D01*
X27649348Y8805278D02*
X27630301Y8814802D01*
X27630301Y8814802D02*
X27620777Y8833849D01*
X27620777Y8833849D02*
X27620777Y8843373D01*
X27620777Y8843373D02*
X27630301Y8862421D01*
X27630301Y8862421D02*
X27649348Y8871945D01*
X27649348Y8871945D02*
X27677920Y8871945D01*
X27677920Y8871945D02*
X27696967Y8862421D01*
X27773158Y8662421D02*
X27782682Y8671945D01*
X27782682Y8671945D02*
X27801729Y8700516D01*
X27801729Y8700516D02*
X27811253Y8719564D01*
X27811253Y8719564D02*
X27820777Y8748135D01*
X27820777Y8748135D02*
X27830301Y8795754D01*
X27830301Y8795754D02*
X27830301Y8833849D01*
X27830301Y8833849D02*
X27820777Y8881468D01*
X27820777Y8881468D02*
X27811253Y8910040D01*
X27811253Y8910040D02*
X27801729Y8929087D01*
X27801729Y8929087D02*
X27782682Y8957659D01*
X27782682Y8957659D02*
X27773158Y8967183D01*
M02*
