G04 #@! TF.GenerationSoftware,KiCad,Pcbnew,9.0.0*
G04 #@! TF.CreationDate,2025-03-17T11:10:42+01:00*
G04 #@! TF.ProjectId,FBG_PCB,4642475f-5043-4422-9e6b-696361645f70,rev?*
G04 #@! TF.SameCoordinates,Original*
G04 #@! TF.FileFunction,Copper,L1,Top*
G04 #@! TF.FilePolarity,Positive*
%FSLAX46Y46*%
G04 Gerber Fmt 4.6, Leading zero omitted, Abs format (unit mm)*
G04 Created by KiCad (PCBNEW 9.0.0) date 2025-03-17 11:10:42*
%MOMM*%
%LPD*%
G01*
G04 APERTURE LIST*
G04 Aperture macros list*
%AMRoundRect*
0 Rectangle with rounded corners*
0 $1 Rounding radius*
0 $2 $3 $4 $5 $6 $7 $8 $9 X,Y pos of 4 corners*
0 Add a 4 corners polygon primitive as box body*
4,1,4,$2,$3,$4,$5,$6,$7,$8,$9,$2,$3,0*
0 Add four circle primitives for the rounded corners*
1,1,$1+$1,$2,$3*
1,1,$1+$1,$4,$5*
1,1,$1+$1,$6,$7*
1,1,$1+$1,$8,$9*
0 Add four rect primitives between the rounded corners*
20,1,$1+$1,$2,$3,$4,$5,0*
20,1,$1+$1,$4,$5,$6,$7,0*
20,1,$1+$1,$6,$7,$8,$9,0*
20,1,$1+$1,$8,$9,$2,$3,0*%
G04 Aperture macros list end*
G04 #@! TA.AperFunction,ComponentPad*
%ADD10RoundRect,0.250000X-0.620000X-0.620000X0.620000X-0.620000X0.620000X0.620000X-0.620000X0.620000X0*%
G04 #@! TD*
G04 #@! TA.AperFunction,ComponentPad*
%ADD11C,1.740000*%
G04 #@! TD*
G04 #@! TA.AperFunction,ComponentPad*
%ADD12C,1.600000*%
G04 #@! TD*
G04 #@! TA.AperFunction,ComponentPad*
%ADD13O,1.600000X1.600000*%
G04 #@! TD*
G04 #@! TA.AperFunction,ComponentPad*
%ADD14RoundRect,0.250000X0.620000X0.620000X-0.620000X0.620000X-0.620000X-0.620000X0.620000X-0.620000X0*%
G04 #@! TD*
G04 #@! TA.AperFunction,ComponentPad*
%ADD15RoundRect,0.250000X-0.620000X0.620000X-0.620000X-0.620000X0.620000X-0.620000X0.620000X0.620000X0*%
G04 #@! TD*
G04 #@! TA.AperFunction,ComponentPad*
%ADD16RoundRect,0.250001X1.099999X-1.099999X1.099999X1.099999X-1.099999X1.099999X-1.099999X-1.099999X0*%
G04 #@! TD*
G04 #@! TA.AperFunction,ComponentPad*
%ADD17C,2.700000*%
G04 #@! TD*
G04 #@! TA.AperFunction,ComponentPad*
%ADD18RoundRect,0.250000X0.620000X-0.620000X0.620000X0.620000X-0.620000X0.620000X-0.620000X-0.620000X0*%
G04 #@! TD*
G04 #@! TA.AperFunction,Conductor*
%ADD19C,0.762000*%
G04 #@! TD*
G04 #@! TA.AperFunction,Conductor*
%ADD20C,0.254000*%
G04 #@! TD*
G04 #@! TA.AperFunction,Conductor*
%ADD21C,0.200000*%
G04 #@! TD*
G04 #@! TA.AperFunction,Conductor*
%ADD22C,0.127000*%
G04 #@! TD*
G04 #@! TA.AperFunction,Conductor*
%ADD23C,0.250000*%
G04 #@! TD*
G04 APERTURE END LIST*
D10*
X291468571Y175000000D03*
D11*
X294008571Y175000000D03*
X296548571Y175000000D03*
X299088571Y175000000D03*
D10*
X291468571Y194714667D03*
D11*
X294008571Y194714667D03*
X296548571Y194714667D03*
X299088571Y194714667D03*
D12*
X303460000Y150000000D03*
D13*
X293300000Y150000000D03*
D14*
X292000000Y120000000D03*
D11*
X289460000Y120000000D03*
X286920000Y120000000D03*
X284380000Y120000000D03*
D14*
X313000000Y120000000D03*
D11*
X310460000Y120000000D03*
X307920000Y120000000D03*
X305380000Y120000000D03*
D10*
X325214000Y107750000D03*
D11*
X327754000Y107750000D03*
X330294000Y107750000D03*
X332834000Y107750000D03*
D15*
X340000000Y147080000D03*
D11*
X340000000Y144540000D03*
X340000000Y142000000D03*
X340000000Y139460000D03*
D10*
X310101429Y194714667D03*
D11*
X312641429Y194714667D03*
X315181429Y194714667D03*
X317721429Y194714667D03*
D12*
X317050000Y142000000D03*
D13*
X306890000Y142000000D03*
D10*
X328734286Y175000000D03*
D11*
X331274286Y175000000D03*
X333814286Y175000000D03*
X336354286Y175000000D03*
D12*
X303460000Y138000000D03*
D13*
X293300000Y138000000D03*
D15*
X278380000Y160000000D03*
D11*
X278380000Y157460000D03*
X278380000Y154920000D03*
X278380000Y152380000D03*
D10*
X345492000Y107750000D03*
D11*
X348032000Y107750000D03*
X350572000Y107750000D03*
X353112000Y107750000D03*
D12*
X303460000Y158000000D03*
D13*
X293300000Y158000000D03*
D16*
X238000000Y105000000D03*
D17*
X238000000Y110000000D03*
D10*
X347367143Y175000000D03*
D11*
X349907143Y175000000D03*
X352447143Y175000000D03*
X354987143Y175000000D03*
D10*
X272835714Y194714667D03*
D11*
X275375714Y194714667D03*
X277915714Y194714667D03*
X280455714Y194714667D03*
D15*
X261320000Y142080000D03*
D11*
X261320000Y139540000D03*
X261320000Y137000000D03*
X261320000Y134460000D03*
D12*
X317050000Y150000000D03*
D13*
X306890000Y150000000D03*
D16*
X238000000Y120273750D03*
D17*
X238000000Y125273750D03*
D12*
X317050000Y138000000D03*
D13*
X306890000Y138000000D03*
D10*
X254202857Y194714667D03*
D11*
X256742857Y194714667D03*
X259282857Y194714667D03*
X261822857Y194714667D03*
D10*
X310101429Y175000000D03*
D11*
X312641429Y175000000D03*
X315181429Y175000000D03*
X317721429Y175000000D03*
D18*
X372000000Y169190000D03*
D11*
X372000000Y171730000D03*
X372000000Y174270000D03*
X372000000Y176810000D03*
D12*
X303460000Y162300000D03*
D13*
X293300000Y162300000D03*
D18*
X237000000Y169000000D03*
D11*
X237000000Y171540000D03*
X237000000Y174080000D03*
X237000000Y176620000D03*
D12*
X303460000Y142000000D03*
D13*
X293300000Y142000000D03*
D18*
X372000000Y135920000D03*
D11*
X372000000Y138460000D03*
X372000000Y141000000D03*
X372000000Y143540000D03*
D10*
X347367143Y194714667D03*
D11*
X349907143Y194714667D03*
X352447143Y194714667D03*
X354987143Y194714667D03*
D10*
X305380000Y107750000D03*
D11*
X307920000Y107750000D03*
X310460000Y107750000D03*
X313000000Y107750000D03*
D10*
X328734286Y194714667D03*
D11*
X331274286Y194714667D03*
X333814286Y194714667D03*
X336354286Y194714667D03*
D10*
X366000000Y194714667D03*
D11*
X368540000Y194714667D03*
X371080000Y194714667D03*
X373620000Y194714667D03*
D10*
X365770000Y107750000D03*
D11*
X368310000Y107750000D03*
X370850000Y107750000D03*
X373390000Y107750000D03*
D12*
X303460000Y134000000D03*
D13*
X293300000Y134000000D03*
D10*
X254202857Y175000000D03*
D11*
X256742857Y175000000D03*
X259282857Y175000000D03*
X261822857Y175000000D03*
D12*
X317050000Y146000000D03*
D13*
X306890000Y146000000D03*
D18*
X338500000Y120190000D03*
D11*
X338500000Y122730000D03*
X338500000Y125270000D03*
X338500000Y127810000D03*
D18*
X237000000Y135102500D03*
D11*
X237000000Y137642500D03*
X237000000Y140182500D03*
X237000000Y142722500D03*
D10*
X235570000Y194714667D03*
D11*
X238110000Y194714667D03*
X240650000Y194714667D03*
X243190000Y194714667D03*
D10*
X264380000Y107750000D03*
D11*
X266920000Y107750000D03*
X269460000Y107750000D03*
X272000000Y107750000D03*
D10*
X328734286Y161000000D03*
D11*
X331274286Y161000000D03*
X333814286Y161000000D03*
X336354286Y161000000D03*
D12*
X317050000Y134000000D03*
D13*
X306890000Y134000000D03*
D12*
X317050000Y162300000D03*
D13*
X306890000Y162300000D03*
D15*
X355000000Y147080000D03*
D11*
X355000000Y144540000D03*
X355000000Y142000000D03*
X355000000Y139460000D03*
D12*
X317050000Y154000000D03*
D13*
X306890000Y154000000D03*
D12*
X317050000Y158000000D03*
D13*
X306890000Y158000000D03*
D18*
X372000000Y152190000D03*
D11*
X372000000Y154730000D03*
X372000000Y157270000D03*
X372000000Y159810000D03*
D12*
X303460000Y154000000D03*
D13*
X293300000Y154000000D03*
D15*
X261320000Y160000000D03*
D11*
X261320000Y157460000D03*
X261320000Y154920000D03*
X261320000Y152380000D03*
D14*
X272000000Y120000000D03*
D11*
X269460000Y120000000D03*
X266920000Y120000000D03*
X264380000Y120000000D03*
D18*
X372000000Y120000000D03*
D11*
X372000000Y122540000D03*
X372000000Y125080000D03*
X372000000Y127620000D03*
D10*
X284380000Y107750000D03*
D11*
X286920000Y107750000D03*
X289460000Y107750000D03*
X292000000Y107750000D03*
D12*
X303460000Y146000000D03*
D13*
X293300000Y146000000D03*
D18*
X353500000Y120190000D03*
D11*
X353500000Y122730000D03*
X353500000Y125270000D03*
X353500000Y127810000D03*
D18*
X237250000Y151551250D03*
D11*
X237250000Y154091250D03*
X237250000Y156631250D03*
X237250000Y159171250D03*
D15*
X278380000Y142540000D03*
D11*
X278380000Y140000000D03*
X278380000Y137460000D03*
X278380000Y134920000D03*
D10*
X272835714Y175000000D03*
D11*
X275375714Y175000000D03*
X277915714Y175000000D03*
X280455714Y175000000D03*
D19*
X235000000Y115000000D02*
X238000000Y112000000D01*
X235000000Y122273750D02*
X235000000Y115000000D01*
X238000000Y125273750D02*
X235000000Y122273750D01*
X238000000Y112000000D02*
X238000000Y110000000D01*
X254202857Y175000000D02*
X261822857Y175000000D01*
X237250000Y151551250D02*
X254202857Y168504107D01*
X254202857Y168504107D02*
X254202857Y175000000D01*
X237000000Y137642500D02*
X237000000Y151301250D01*
X237000000Y151301250D02*
X237250000Y151551250D01*
X241000000Y131102500D02*
X237000000Y135102500D01*
X241000000Y123273750D02*
X241000000Y131102500D01*
X238000000Y120273750D02*
X241000000Y123273750D01*
D20*
X299088571Y176081810D02*
X299088571Y175000000D01*
X280455714Y194714667D02*
X299088571Y176081810D01*
X296548571Y176081810D02*
X296548571Y175000000D01*
X277915714Y194714667D02*
X296548571Y176081810D01*
X294008571Y176081810D02*
X294008571Y175000000D01*
X275375714Y194714667D02*
X294008571Y176081810D01*
X273705714Y194714667D02*
X291468571Y176951810D01*
X272835714Y194714667D02*
X273705714Y194714667D01*
X291468571Y176951810D02*
X291468571Y175000000D01*
X261822857Y194714667D02*
X280455714Y176081810D01*
X280455714Y176081810D02*
X280455714Y175000000D01*
X259282857Y194714667D02*
X277915714Y176081810D01*
X277915714Y176081810D02*
X277915714Y175000000D01*
X275375714Y176081810D02*
X275375714Y175000000D01*
X256742857Y194714667D02*
X275375714Y176081810D01*
X254202857Y193632857D02*
X272835714Y175000000D01*
X254202857Y194714667D02*
X254202857Y193632857D01*
X310101429Y175898571D02*
X310101429Y175000000D01*
X300000000Y186000000D02*
X310101429Y175898571D01*
X300000000Y187000000D02*
X300000000Y186000000D01*
X292285333Y194714667D02*
X300000000Y187000000D01*
X291468571Y194714667D02*
X292285333Y194714667D01*
X301723238Y185918191D02*
X312641429Y175000000D01*
X301723238Y187000000D02*
X301723238Y185918191D01*
X304263238Y185918191D02*
X315181429Y175000000D01*
X304263238Y187000000D02*
X304263238Y185918191D01*
X306803238Y185918191D02*
X317721429Y175000000D01*
X306803238Y187000000D02*
X306803238Y185918191D01*
X347367143Y176081810D02*
X366000000Y194714667D01*
X347367143Y175000000D02*
X347367143Y176081810D01*
X368540000Y193632857D02*
X368540000Y194714667D01*
X349907143Y175000000D02*
X368540000Y193632857D01*
X371080000Y193632857D02*
X371080000Y194714667D01*
X352447143Y175000000D02*
X371080000Y193632857D01*
X373620000Y193632857D02*
X373620000Y194714667D01*
X354987143Y175000000D02*
X373620000Y193632857D01*
D21*
X328734286Y161000000D02*
X328734286Y175000000D01*
D19*
X237000000Y177000000D02*
X235570000Y178430000D01*
X237000000Y176620000D02*
X237000000Y177000000D01*
X237250000Y156631250D02*
X235000000Y158881250D01*
X235000000Y158881250D02*
X235000000Y174620000D01*
X235570000Y178430000D02*
X235570000Y194714667D01*
X238110000Y194714667D02*
X235570000Y194714667D01*
X235000000Y174620000D02*
X237000000Y176620000D01*
D20*
X340000000Y147430000D02*
X340000000Y147080000D01*
X324780000Y162300000D02*
X340000000Y147080000D01*
X317050000Y162300000D02*
X324780000Y162300000D01*
D19*
X277760000Y107750000D02*
X373390000Y107750000D01*
X264380000Y107750000D02*
X272000000Y107750000D01*
X271380000Y107750000D02*
X279000000Y107750000D01*
X293300000Y162300000D02*
X293300000Y134000000D01*
X238000000Y105000000D02*
X253380000Y105000000D01*
X264380000Y116000000D02*
X264380000Y120000000D01*
X253380000Y105000000D02*
X264380000Y116000000D01*
X237250000Y159171250D02*
X243190000Y165111250D01*
X240650000Y194714667D02*
X243190000Y194714667D01*
X243190000Y165111250D02*
X243190000Y194714667D01*
X261320000Y152380000D02*
X261320000Y142080000D01*
X261840000Y134920000D02*
X278380000Y134920000D01*
X261380000Y134460000D02*
X261840000Y134920000D01*
X237000000Y169000000D02*
X237000000Y171540000D01*
X278380000Y159620000D02*
X278380000Y134920000D01*
X237000000Y174080000D02*
X237000000Y171540000D01*
X261380000Y142080000D02*
X261380000Y134460000D01*
X261320000Y152380000D02*
X261320000Y160000000D01*
X266920000Y120000000D02*
X269460000Y120000000D01*
X307920000Y120000000D02*
X313000000Y120000000D01*
X272000000Y120000000D02*
X284380000Y120000000D01*
X282380000Y120000000D02*
X308460000Y120000000D01*
D20*
X338460000Y144540000D02*
X340000000Y144540000D01*
X325000000Y158000000D02*
X338460000Y144540000D01*
X317050000Y158000000D02*
X325000000Y158000000D01*
X325000000Y150000000D02*
X335540000Y139460000D01*
X335540000Y139460000D02*
X340000000Y139460000D01*
X317050000Y150000000D02*
X325000000Y150000000D01*
X325000000Y154000000D02*
X337000000Y142000000D01*
X337000000Y142000000D02*
X340000000Y142000000D01*
X317050000Y154000000D02*
X325000000Y154000000D01*
X324000000Y142000000D02*
X332000000Y134000000D01*
X332000000Y134000000D02*
X345000000Y134000000D01*
X355000000Y144000000D02*
X355000000Y144540000D01*
X317050000Y142000000D02*
X324000000Y142000000D01*
X345000000Y134000000D02*
X355000000Y144000000D01*
X329999999Y134000000D02*
X331999999Y132000000D01*
X331999999Y132000000D02*
X345000000Y132000000D01*
X317050000Y134000000D02*
X329999999Y134000000D01*
X352460000Y139460000D02*
X355000000Y139460000D01*
X345000000Y132000000D02*
X352460000Y139460000D01*
X321000000Y146000000D02*
X332000000Y135000000D01*
X353000000Y143000000D02*
X353000000Y145080000D01*
X317050000Y146000000D02*
X321000000Y146000000D01*
X354620000Y147080000D02*
X355000000Y147080000D01*
X345000000Y135000000D02*
X353000000Y143000000D01*
X332000000Y135000000D02*
X345000000Y135000000D01*
X353000000Y145080000D02*
X355000000Y147080000D01*
X317050000Y138000000D02*
X327000000Y138000000D01*
X332000000Y133000000D02*
X345000000Y133000000D01*
X327000000Y138000000D02*
X332000000Y133000000D01*
X354000000Y142000000D02*
X355000000Y142000000D01*
X345000000Y133000000D02*
X354000000Y142000000D01*
X303460000Y162300000D02*
X306890000Y162300000D01*
X303460000Y154000000D02*
X306890000Y154000000D01*
X303460000Y150000000D02*
X306890000Y150000000D01*
X303460000Y158000000D02*
X306890000Y158000000D01*
X303460000Y142000000D02*
X306890000Y142000000D01*
X303460000Y134000000D02*
X306890000Y134000000D01*
X303460000Y146000000D02*
X306890000Y146000000D01*
X303460000Y138000000D02*
X306890000Y138000000D01*
X294009000Y175695000D02*
X294009000Y175000000D01*
X296549000Y175695000D02*
X296549000Y175000000D01*
X294009000Y194714667D02*
X294009000Y194019667D01*
X294008571Y194714667D02*
X301723238Y187000000D01*
X299088571Y194714667D02*
X306803238Y187000000D01*
X296548571Y194714667D02*
X304263238Y187000000D01*
X299089000Y175695000D02*
X299089000Y175000000D01*
X372000000Y127620000D02*
X372000000Y138460000D01*
X372000000Y120000000D02*
X372000000Y127620000D01*
X372000000Y141000000D02*
X372000000Y159810000D01*
D22*
X373510000Y175330000D02*
X373510000Y172510000D01*
X373510000Y172510000D02*
X373000000Y172000000D01*
X371760000Y177080000D02*
X373510000Y175330000D01*
X373000000Y172000000D02*
X371760000Y172000000D01*
X369510000Y172290000D02*
X371760000Y174540000D01*
X371760000Y169460000D02*
X370560000Y169460000D01*
X370560000Y169460000D02*
X369510000Y170510000D01*
X369510000Y170510000D02*
X369510000Y172290000D01*
D20*
X334037933Y175000000D02*
X334037933Y160867933D01*
D22*
X334037933Y160867933D02*
X333920000Y160750000D01*
X331497933Y160867933D02*
X331380000Y160750000D01*
D23*
X331497933Y175000000D02*
X331497933Y160867933D01*
D22*
X336577933Y160867933D02*
X336460000Y160750000D01*
D20*
X336577933Y175000000D02*
X336577933Y160867933D01*
D21*
X353500000Y127810000D02*
X338250000Y127810000D01*
X353500000Y120190000D02*
X338250000Y120190000D01*
X353500000Y125270000D02*
X338250000Y125270000D01*
X353500000Y122730000D02*
X338250000Y122730000D01*
M02*
